<svg xmlns="http://www.w3.org/2000/svg" xmlns:xlink="http://www.w3.org/1999/xlink" width="141.843" height="141.843" viewBox="0 0 141.843 141.843"><defs><style>.a,.e{fill:none;}.b{opacity:0.36;}.c{clip-path:url(#a);}.d{clip-path:url(#b);}.e{stroke:#68dea4;stroke-width:1.45px;}.f{clip-path:url(#f);}.g{clip-path:url(#i);}</style><clipPath id="a"><path class="a" d="M70.882,0A70.954,70.954,0,1,0,70.9,0Zm0,102.635A31.714,31.714,0,1,1,102.6,70.921a31.714,31.714,0,0,1-31.714,31.714Z" transform="translate(0)"/></clipPath><clipPath id="b"><rect class="a" width="56.394" height="56.394" transform="translate(0 0)"/></clipPath><clipPath id="f"><rect class="a" width="56.394" height="56.394"/></clipPath><clipPath id="i"><rect class="a" width="56.394" height="56.394" transform="translate(0)"/></clipPath></defs><g transform="translate(0 141.843) rotate(-90)"><g transform="translate(0)"><g class="b"><g class="c"><g class="d" transform="translate(139.94 132.61)"><line class="e" y2="56.784" transform="translate(2.823 56.199)"/><line class="e" y2="56.784" transform="translate(14.099 56.199)"/><line class="e" y2="56.784" transform="translate(25.374 56.199)"/><line class="e" y2="56.784" transform="translate(36.658 56.199)"/><line class="e" y2="56.784" transform="translate(47.933 56.199)"/><line class="e" y2="56.784" transform="translate(8.461 56.199)"/><line class="e" y2="56.784" transform="translate(19.736 56.199)"/><line class="e" y2="56.784" transform="translate(31.02 56.199)"/><line class="e" y2="56.784" transform="translate(42.296 56.199)"/><line class="e" y2="56.784" transform="translate(53.571 56.199)"/><line class="e" y2="56.784" transform="translate(2.823 -0.195)"/><line class="e" y2="56.784" transform="translate(14.099 -0.195)"/><line class="e" y2="56.784" transform="translate(25.374 -0.195)"/><line class="e" y2="56.784" transform="translate(36.658 -0.195)"/><line class="e" y2="56.784" transform="translate(47.933 -0.195)"/><line class="e" y2="56.784" transform="translate(8.461 -0.195)"/><line class="e" y2="56.784" transform="translate(19.736 -0.195)"/><line class="e" y2="56.784" transform="translate(31.02 -0.195)"/><line class="e" y2="56.784" transform="translate(42.296 -0.195)"/><line class="e" y2="56.784" transform="translate(53.571 -0.195)"/><line class="e" y2="56.792" transform="translate(2.823 -56.589)"/><line class="e" y2="56.792" transform="translate(14.099 -56.589)"/><line class="e" y2="56.792" transform="translate(25.374 -56.589)"/><line class="e" y2="56.792" transform="translate(36.658 -56.589)"/><line class="e" y2="56.792" transform="translate(47.933 -56.589)"/><line class="e" y2="56.792" transform="translate(8.461 -56.589)"/><line class="e" y2="56.792" transform="translate(19.736 -56.589)"/><line class="e" y2="56.792" transform="translate(31.02 -56.589)"/><line class="e" y2="56.792" transform="translate(42.296 -56.589)"/><line class="e" y2="56.792" transform="translate(53.571 -56.589)"/></g><g class="d" transform="translate(83.554 132.61)"><line class="e" y2="56.784" transform="translate(2.815 56.199)"/><line class="e" y2="56.784" transform="translate(14.091 56.199)"/><line class="e" y2="56.784" transform="translate(25.374 56.199)"/><line class="e" y2="56.784" transform="translate(36.65 56.199)"/><line class="e" y2="56.784" transform="translate(47.926 56.199)"/><line class="e" y2="56.784" transform="translate(8.453 56.199)"/><line class="e" y2="56.784" transform="translate(19.736 56.199)"/><line class="e" y2="56.784" transform="translate(31.012 56.199)"/><line class="e" y2="56.784" transform="translate(42.288 56.199)"/><line class="e" y2="56.784" transform="translate(53.571 56.199)"/><line class="e" y2="56.784" transform="translate(2.815 -0.195)"/><line class="e" y2="56.784" transform="translate(14.091 -0.195)"/><line class="e" y2="56.784" transform="translate(25.374 -0.195)"/><line class="e" y2="56.784" transform="translate(36.65 -0.195)"/><line class="e" y2="56.784" transform="translate(47.926 -0.195)"/><line class="e" y2="56.784" transform="translate(8.453 -0.195)"/><line class="e" y2="56.784" transform="translate(19.736 -0.195)"/><line class="e" y2="56.784" transform="translate(31.012 -0.195)"/><line class="e" y2="56.784" transform="translate(42.288 -0.195)"/><line class="e" y2="56.784" transform="translate(53.571 -0.195)"/><line class="e" y2="56.792" transform="translate(2.815 -56.589)"/><line class="e" y2="56.792" transform="translate(14.091 -56.589)"/><line class="e" y2="56.792" transform="translate(25.374 -56.589)"/><line class="e" y2="56.792" transform="translate(36.65 -56.589)"/><line class="e" y2="56.792" transform="translate(47.926 -56.589)"/><line class="e" y2="56.792" transform="translate(8.453 -56.589)"/><line class="e" y2="56.792" transform="translate(19.736 -56.589)"/><line class="e" y2="56.792" transform="translate(31.012 -56.589)"/><line class="e" y2="56.792" transform="translate(42.288 -56.589)"/><line class="e" y2="56.792" transform="translate(53.571 -56.589)"/></g><g class="d" transform="translate(27.16 132.61)"><line class="e" y2="56.784" transform="translate(2.815 56.199)"/><line class="e" y2="56.784" transform="translate(14.099 56.199)"/><line class="e" y2="56.784" transform="translate(25.374 56.199)"/><line class="e" y2="56.784" transform="translate(36.65 56.199)"/><line class="e" y2="56.784" transform="translate(47.933 56.199)"/><line class="e" y2="56.784" transform="translate(8.453 56.199)"/><line class="e" y2="56.784" transform="translate(19.736 56.199)"/><line class="e" y2="56.784" transform="translate(31.012 56.199)"/><line class="e" y2="56.784" transform="translate(42.288 56.199)"/><line class="e" y2="56.784" transform="translate(53.571 56.199)"/><line class="e" y2="56.784" transform="translate(2.815 -0.195)"/><line class="e" y2="56.784" transform="translate(14.099 -0.195)"/><line class="e" y2="56.784" transform="translate(25.374 -0.195)"/><line class="e" y2="56.784" transform="translate(36.65 -0.195)"/><line class="e" y2="56.784" transform="translate(47.933 -0.195)"/><line class="e" y2="56.784" transform="translate(8.453 -0.195)"/><line class="e" y2="56.784" transform="translate(19.736 -0.195)"/><line class="e" y2="56.784" transform="translate(31.012 -0.195)"/><line class="e" y2="56.784" transform="translate(42.288 -0.195)"/><line class="e" y2="56.784" transform="translate(53.571 -0.195)"/><line class="e" y2="56.792" transform="translate(2.815 -56.589)"/><line class="e" y2="56.792" transform="translate(14.099 -56.589)"/><line class="e" y2="56.792" transform="translate(25.374 -56.589)"/><line class="e" y2="56.792" transform="translate(36.65 -56.589)"/><line class="e" y2="56.792" transform="translate(47.933 -56.589)"/><line class="e" y2="56.792" transform="translate(8.453 -56.589)"/><line class="e" y2="56.792" transform="translate(19.736 -56.589)"/><line class="e" y2="56.792" transform="translate(31.012 -56.589)"/><line class="e" y2="56.792" transform="translate(42.288 -56.589)"/><line class="e" y2="56.792" transform="translate(53.571 -56.589)"/></g><g class="d" transform="translate(-29.234 132.61)"><line class="e" y2="56.784" transform="translate(2.815 56.199)"/><line class="e" y2="56.784" transform="translate(14.099 56.199)"/><line class="e" y2="56.784" transform="translate(25.374 56.199)"/><line class="e" y2="56.784" transform="translate(36.65 56.199)"/><line class="e" y2="56.784" transform="translate(47.933 56.199)"/><line class="e" y2="56.784" transform="translate(8.461 56.199)"/><line class="e" y2="56.784" transform="translate(19.736 56.199)"/><line class="e" y2="56.784" transform="translate(31.012 56.199)"/><line class="e" y2="56.784" transform="translate(42.296 56.199)"/><line class="e" y2="56.784" transform="translate(53.571 56.199)"/><line class="e" y2="56.784" transform="translate(2.815 -0.195)"/><line class="e" y2="56.784" transform="translate(14.099 -0.195)"/><line class="e" y2="56.784" transform="translate(25.374 -0.195)"/><line class="e" y2="56.784" transform="translate(36.65 -0.195)"/><line class="e" y2="56.784" transform="translate(47.933 -0.195)"/><line class="e" y2="56.784" transform="translate(8.461 -0.195)"/><line class="e" y2="56.784" transform="translate(19.736 -0.195)"/><line class="e" y2="56.784" transform="translate(31.012 -0.195)"/><line class="e" y2="56.784" transform="translate(42.296 -0.195)"/><line class="e" y2="56.784" transform="translate(53.571 -0.195)"/><line class="e" y2="56.792" transform="translate(2.815 -56.589)"/><line class="e" y2="56.792" transform="translate(14.099 -56.589)"/><line class="e" y2="56.792" transform="translate(25.374 -56.589)"/><line class="e" y2="56.792" transform="translate(36.65 -56.589)"/><line class="e" y2="56.792" transform="translate(47.933 -56.589)"/><line class="e" y2="56.792" transform="translate(8.461 -56.589)"/><line class="e" y2="56.792" transform="translate(19.736 -56.589)"/><line class="e" y2="56.792" transform="translate(31.012 -56.589)"/><line class="e" y2="56.792" transform="translate(42.296 -56.589)"/><line class="e" y2="56.792" transform="translate(53.571 -56.589)"/></g><g class="f" transform="translate(139.94 76.224)"><line class="e" y2="56.784" transform="translate(2.823 56.191)"/><line class="e" y2="56.784" transform="translate(14.099 56.191)"/><line class="e" y2="56.784" transform="translate(25.374 56.191)"/><line class="e" y2="56.784" transform="translate(36.658 56.191)"/><line class="e" y2="56.784" transform="translate(47.933 56.191)"/><line class="e" y2="56.784" transform="translate(8.461 56.191)"/><line class="e" y2="56.784" transform="translate(19.736 56.191)"/><line class="e" y2="56.784" transform="translate(31.02 56.191)"/><line class="e" y2="56.784" transform="translate(42.296 56.191)"/><line class="e" y2="56.784" transform="translate(53.571 56.191)"/><line class="e" y2="56.792" transform="translate(2.823 -0.203)"/><line class="e" y2="56.792" transform="translate(14.099 -0.203)"/><line class="e" y2="56.792" transform="translate(25.374 -0.203)"/><line class="e" y2="56.792" transform="translate(36.658 -0.203)"/><line class="e" y2="56.792" transform="translate(47.933 -0.203)"/><line class="e" y2="56.792" transform="translate(8.461 -0.203)"/><line class="e" y2="56.792" transform="translate(19.736 -0.203)"/><line class="e" y2="56.792" transform="translate(31.02 -0.203)"/><line class="e" y2="56.792" transform="translate(42.296 -0.203)"/><line class="e" y2="56.792" transform="translate(53.571 -0.203)"/><line class="e" y2="56.784" transform="translate(2.823 -56.589)"/><line class="e" y2="56.784" transform="translate(14.099 -56.589)"/><line class="e" y2="56.784" transform="translate(25.374 -56.589)"/><line class="e" y2="56.784" transform="translate(36.658 -56.589)"/><line class="e" y2="56.784" transform="translate(47.933 -56.589)"/><line class="e" y2="56.784" transform="translate(8.461 -56.589)"/><line class="e" y2="56.784" transform="translate(19.736 -56.589)"/><line class="e" y2="56.784" transform="translate(31.02 -56.589)"/><line class="e" y2="56.784" transform="translate(42.296 -56.589)"/><line class="e" y2="56.784" transform="translate(53.571 -56.589)"/></g><g class="f" transform="translate(83.554 76.224)"><line class="e" y2="56.784" transform="translate(2.815 56.191)"/><line class="e" y2="56.784" transform="translate(14.091 56.191)"/><line class="e" y2="56.784" transform="translate(25.374 56.191)"/><line class="e" y2="56.784" transform="translate(36.65 56.191)"/><line class="e" y2="56.784" transform="translate(47.926 56.191)"/><line class="e" y2="56.784" transform="translate(8.453 56.191)"/><line class="e" y2="56.784" transform="translate(19.736 56.191)"/><line class="e" y2="56.784" transform="translate(31.012 56.191)"/><line class="e" y2="56.784" transform="translate(42.288 56.191)"/><line class="e" y2="56.784" transform="translate(53.571 56.191)"/><line class="e" y2="56.792" transform="translate(2.815 -0.203)"/><line class="e" y2="56.792" transform="translate(14.091 -0.203)"/><line class="e" y2="56.792" transform="translate(25.374 -0.203)"/><line class="e" y2="56.792" transform="translate(36.65 -0.203)"/><line class="e" y2="56.792" transform="translate(47.926 -0.203)"/><line class="e" y2="56.792" transform="translate(8.453 -0.203)"/><line class="e" y2="56.792" transform="translate(19.736 -0.203)"/><line class="e" y2="56.792" transform="translate(31.012 -0.203)"/><line class="e" y2="56.792" transform="translate(42.288 -0.203)"/><line class="e" y2="56.792" transform="translate(53.571 -0.203)"/><line class="e" y2="56.784" transform="translate(2.815 -56.589)"/><line class="e" y2="56.784" transform="translate(14.091 -56.589)"/><line class="e" y2="56.784" transform="translate(25.374 -56.589)"/><line class="e" y2="56.784" transform="translate(36.65 -56.589)"/><line class="e" y2="56.784" transform="translate(47.926 -56.589)"/><line class="e" y2="56.784" transform="translate(8.453 -56.589)"/><line class="e" y2="56.784" transform="translate(19.736 -56.589)"/><line class="e" y2="56.784" transform="translate(31.012 -56.589)"/><line class="e" y2="56.784" transform="translate(42.288 -56.589)"/><line class="e" y2="56.784" transform="translate(53.571 -56.589)"/></g><g class="f" transform="translate(27.16 76.224)"><line class="e" y2="56.784" transform="translate(2.815 56.191)"/><line class="e" y2="56.784" transform="translate(14.099 56.191)"/><line class="e" y2="56.784" transform="translate(25.374 56.191)"/><line class="e" y2="56.784" transform="translate(36.65 56.191)"/><line class="e" y2="56.784" transform="translate(47.933 56.191)"/><line class="e" y2="56.784" transform="translate(8.453 56.191)"/><line class="e" y2="56.784" transform="translate(19.736 56.191)"/><line class="e" y2="56.784" transform="translate(31.012 56.191)"/><line class="e" y2="56.784" transform="translate(42.288 56.191)"/><line class="e" y2="56.784" transform="translate(53.571 56.191)"/><line class="e" y2="56.792" transform="translate(2.815 -0.203)"/><line class="e" y2="56.792" transform="translate(14.099 -0.203)"/><line class="e" y2="56.792" transform="translate(25.374 -0.203)"/><line class="e" y2="56.792" transform="translate(36.65 -0.203)"/><line class="e" y2="56.792" transform="translate(47.933 -0.203)"/><line class="e" y2="56.792" transform="translate(8.453 -0.203)"/><line class="e" y2="56.792" transform="translate(19.736 -0.203)"/><line class="e" y2="56.792" transform="translate(31.012 -0.203)"/><line class="e" y2="56.792" transform="translate(42.288 -0.203)"/><line class="e" y2="56.792" transform="translate(53.571 -0.203)"/><line class="e" y2="56.784" transform="translate(2.815 -56.589)"/><line class="e" y2="56.784" transform="translate(14.099 -56.589)"/><line class="e" y2="56.784" transform="translate(25.374 -56.589)"/><line class="e" y2="56.784" transform="translate(36.65 -56.589)"/><line class="e" y2="56.784" transform="translate(47.933 -56.589)"/><line class="e" y2="56.784" transform="translate(8.453 -56.589)"/><line class="e" y2="56.784" transform="translate(19.736 -56.589)"/><line class="e" y2="56.784" transform="translate(31.012 -56.589)"/><line class="e" y2="56.784" transform="translate(42.288 -56.589)"/><line class="e" y2="56.784" transform="translate(53.571 -56.589)"/></g><g class="g" transform="translate(-29.234 76.224)"><line class="e" y2="56.784" transform="translate(2.815 56.191)"/><line class="e" y2="56.784" transform="translate(14.099 56.191)"/><line class="e" y2="56.784" transform="translate(25.374 56.191)"/><line class="e" y2="56.784" transform="translate(36.65 56.191)"/><line class="e" y2="56.784" transform="translate(47.933 56.191)"/><line class="e" y2="56.784" transform="translate(8.461 56.191)"/><line class="e" y2="56.784" transform="translate(19.736 56.191)"/><line class="e" y2="56.784" transform="translate(31.012 56.191)"/><line class="e" y2="56.784" transform="translate(42.296 56.191)"/><line class="e" y2="56.784" transform="translate(53.571 56.191)"/><line class="e" y2="56.792" transform="translate(2.815 -0.203)"/><line class="e" y2="56.792" transform="translate(14.099 -0.203)"/><line class="e" y2="56.792" transform="translate(25.374 -0.203)"/><line class="e" y2="56.792" transform="translate(36.65 -0.203)"/><line class="e" y2="56.792" transform="translate(47.933 -0.203)"/><line class="e" y2="56.792" transform="translate(8.461 -0.203)"/><line class="e" y2="56.792" transform="translate(19.736 -0.203)"/><line class="e" y2="56.792" transform="translate(31.012 -0.203)"/><line class="e" y2="56.792" transform="translate(42.296 -0.203)"/><line class="e" y2="56.792" transform="translate(53.571 -0.203)"/><line class="e" y2="56.784" transform="translate(2.815 -56.589)"/><line class="e" y2="56.784" transform="translate(14.099 -56.589)"/><line class="e" y2="56.784" transform="translate(25.374 -56.589)"/><line class="e" y2="56.784" transform="translate(36.65 -56.589)"/><line class="e" y2="56.784" transform="translate(47.933 -56.589)"/><line class="e" y2="56.784" transform="translate(8.461 -56.589)"/><line class="e" y2="56.784" transform="translate(19.736 -56.589)"/><line class="e" y2="56.784" transform="translate(31.012 -56.589)"/><line class="e" y2="56.784" transform="translate(42.296 -56.589)"/><line class="e" y2="56.784" transform="translate(53.571 -56.589)"/></g><g class="f" transform="translate(139.94 19.83)"><line class="e" y2="56.792" transform="translate(2.823 56.191)"/><line class="e" y2="56.792" transform="translate(14.099 56.191)"/><line class="e" y2="56.792" transform="translate(25.374 56.191)"/><line class="e" y2="56.792" transform="translate(36.658 56.191)"/><line class="e" y2="56.792" transform="translate(47.933 56.191)"/><line class="e" y2="56.792" transform="translate(8.461 56.191)"/><line class="e" y2="56.792" transform="translate(19.736 56.191)"/><line class="e" y2="56.792" transform="translate(31.02 56.191)"/><line class="e" y2="56.792" transform="translate(42.296 56.191)"/><line class="e" y2="56.792" transform="translate(53.571 56.191)"/><line class="e" y2="56.784" transform="translate(2.823 -0.195)"/><line class="e" y2="56.784" transform="translate(14.099 -0.195)"/><line class="e" y2="56.784" transform="translate(25.374 -0.195)"/><line class="e" y2="56.784" transform="translate(36.658 -0.195)"/><line class="e" y2="56.784" transform="translate(47.933 -0.195)"/><line class="e" y2="56.784" transform="translate(8.461 -0.195)"/><line class="e" y2="56.784" transform="translate(19.736 -0.195)"/><line class="e" y2="56.784" transform="translate(31.02 -0.195)"/><line class="e" y2="56.784" transform="translate(42.296 -0.195)"/><line class="e" y2="56.784" transform="translate(53.571 -0.195)"/><line class="e" y2="56.784" transform="translate(2.823 -56.589)"/><line class="e" y2="56.784" transform="translate(14.099 -56.589)"/><line class="e" y2="56.784" transform="translate(25.374 -56.589)"/><line class="e" y2="56.784" transform="translate(36.658 -56.589)"/><line class="e" y2="56.784" transform="translate(47.933 -56.589)"/><line class="e" y2="56.784" transform="translate(8.461 -56.589)"/><line class="e" y2="56.784" transform="translate(19.736 -56.589)"/><line class="e" y2="56.784" transform="translate(31.02 -56.589)"/><line class="e" y2="56.784" transform="translate(42.296 -56.589)"/><line class="e" y2="56.784" transform="translate(53.571 -56.589)"/></g><g class="f" transform="translate(83.554 19.83)"><line class="e" y2="56.792" transform="translate(2.815 56.191)"/><line class="e" y2="56.792" transform="translate(14.091 56.191)"/><line class="e" y2="56.792" transform="translate(25.374 56.191)"/><line class="e" y2="56.792" transform="translate(36.65 56.191)"/><line class="e" y2="56.792" transform="translate(47.926 56.191)"/><line class="e" y2="56.792" transform="translate(8.453 56.191)"/><line class="e" y2="56.792" transform="translate(19.736 56.191)"/><line class="e" y2="56.792" transform="translate(31.012 56.191)"/><line class="e" y2="56.792" transform="translate(42.288 56.191)"/><line class="e" y2="56.792" transform="translate(53.571 56.191)"/><line class="e" y2="56.784" transform="translate(2.815 -0.195)"/><line class="e" y2="56.784" transform="translate(14.091 -0.195)"/><line class="e" y2="56.784" transform="translate(25.374 -0.195)"/><line class="e" y2="56.784" transform="translate(36.65 -0.195)"/><line class="e" y2="56.784" transform="translate(47.926 -0.195)"/><line class="e" y2="56.784" transform="translate(8.453 -0.195)"/><line class="e" y2="56.784" transform="translate(19.736 -0.195)"/><line class="e" y2="56.784" transform="translate(31.012 -0.195)"/><line class="e" y2="56.784" transform="translate(42.288 -0.195)"/><line class="e" y2="56.784" transform="translate(53.571 -0.195)"/><line class="e" y2="56.784" transform="translate(2.815 -56.589)"/><line class="e" y2="56.784" transform="translate(14.091 -56.589)"/><line class="e" y2="56.784" transform="translate(25.374 -56.589)"/><line class="e" y2="56.784" transform="translate(36.65 -56.589)"/><line class="e" y2="56.784" transform="translate(47.926 -56.589)"/><line class="e" y2="56.784" transform="translate(8.453 -56.589)"/><line class="e" y2="56.784" transform="translate(19.736 -56.589)"/><line class="e" y2="56.784" transform="translate(31.012 -56.589)"/><line class="e" y2="56.784" transform="translate(42.288 -56.589)"/><line class="e" y2="56.784" transform="translate(53.571 -56.589)"/></g><g class="f" transform="translate(27.16 19.83)"><line class="e" y2="56.792" transform="translate(2.815 56.191)"/><line class="e" y2="56.792" transform="translate(14.099 56.191)"/><line class="e" y2="56.792" transform="translate(25.374 56.191)"/><line class="e" y2="56.792" transform="translate(36.65 56.191)"/><line class="e" y2="56.792" transform="translate(47.933 56.191)"/><line class="e" y2="56.792" transform="translate(8.453 56.191)"/><line class="e" y2="56.792" transform="translate(19.736 56.191)"/><line class="e" y2="56.792" transform="translate(31.012 56.191)"/><line class="e" y2="56.792" transform="translate(42.288 56.191)"/><line class="e" y2="56.792" transform="translate(53.571 56.191)"/><line class="e" y2="56.784" transform="translate(2.815 -0.195)"/><line class="e" y2="56.784" transform="translate(14.099 -0.195)"/><line class="e" y2="56.784" transform="translate(25.374 -0.195)"/><line class="e" y2="56.784" transform="translate(36.65 -0.195)"/><line class="e" y2="56.784" transform="translate(47.933 -0.195)"/><line class="e" y2="56.784" transform="translate(8.453 -0.195)"/><line class="e" y2="56.784" transform="translate(19.736 -0.195)"/><line class="e" y2="56.784" transform="translate(31.012 -0.195)"/><line class="e" y2="56.784" transform="translate(42.288 -0.195)"/><line class="e" y2="56.784" transform="translate(53.571 -0.195)"/><line class="e" y2="56.784" transform="translate(2.815 -56.589)"/><line class="e" y2="56.784" transform="translate(14.099 -56.589)"/><line class="e" y2="56.784" transform="translate(25.374 -56.589)"/><line class="e" y2="56.784" transform="translate(36.65 -56.589)"/><line class="e" y2="56.784" transform="translate(47.933 -56.589)"/><line class="e" y2="56.784" transform="translate(8.453 -56.589)"/><line class="e" y2="56.784" transform="translate(19.736 -56.589)"/><line class="e" y2="56.784" transform="translate(31.012 -56.589)"/><line class="e" y2="56.784" transform="translate(42.288 -56.589)"/><line class="e" y2="56.784" transform="translate(53.571 -56.589)"/></g><g class="g" transform="translate(-29.234 19.83)"><line class="e" y2="56.792" transform="translate(2.815 56.191)"/><line class="e" y2="56.792" transform="translate(14.099 56.191)"/><line class="e" y2="56.792" transform="translate(25.374 56.191)"/><line class="e" y2="56.792" transform="translate(36.65 56.191)"/><line class="e" y2="56.792" transform="translate(47.933 56.191)"/><line class="e" y2="56.792" transform="translate(8.461 56.191)"/><line class="e" y2="56.792" transform="translate(19.736 56.191)"/><line class="e" y2="56.792" transform="translate(31.012 56.191)"/><line class="e" y2="56.792" transform="translate(42.296 56.191)"/><line class="e" y2="56.792" transform="translate(53.571 56.191)"/><line class="e" y2="56.784" transform="translate(2.815 -0.195)"/><line class="e" y2="56.784" transform="translate(14.099 -0.195)"/><line class="e" y2="56.784" transform="translate(25.374 -0.195)"/><line class="e" y2="56.784" transform="translate(36.65 -0.195)"/><line class="e" y2="56.784" transform="translate(47.933 -0.195)"/><line class="e" y2="56.784" transform="translate(8.461 -0.195)"/><line class="e" y2="56.784" transform="translate(19.736 -0.195)"/><line class="e" y2="56.784" transform="translate(31.012 -0.195)"/><line class="e" y2="56.784" transform="translate(42.296 -0.195)"/><line class="e" y2="56.784" transform="translate(53.571 -0.195)"/><line class="e" y2="56.784" transform="translate(2.815 -56.589)"/><line class="e" y2="56.784" transform="translate(14.099 -56.589)"/><line class="e" y2="56.784" transform="translate(25.374 -56.589)"/><line class="e" y2="56.784" transform="translate(36.65 -56.589)"/><line class="e" y2="56.784" transform="translate(47.933 -56.589)"/><line class="e" y2="56.784" transform="translate(8.461 -56.589)"/><line class="e" y2="56.784" transform="translate(19.736 -56.589)"/><line class="e" y2="56.784" transform="translate(31.012 -56.589)"/><line class="e" y2="56.784" transform="translate(42.296 -56.589)"/><line class="e" y2="56.784" transform="translate(53.571 -56.589)"/></g><g class="f" transform="translate(139.94 -36.564)"><line class="e" y2="56.784" transform="translate(2.823 56.199)"/><line class="e" y2="56.784" transform="translate(14.099 56.199)"/><line class="e" y2="56.784" transform="translate(25.374 56.199)"/><line class="e" y2="56.784" transform="translate(36.658 56.199)"/><line class="e" y2="56.784" transform="translate(47.933 56.199)"/><line class="e" y2="56.784" transform="translate(8.461 56.199)"/><line class="e" y2="56.784" transform="translate(19.736 56.199)"/><line class="e" y2="56.784" transform="translate(31.02 56.199)"/><line class="e" y2="56.784" transform="translate(42.296 56.199)"/><line class="e" y2="56.784" transform="translate(53.571 56.199)"/><line class="e" y2="56.784" transform="translate(2.823 -0.195)"/><line class="e" y2="56.784" transform="translate(14.099 -0.195)"/><line class="e" y2="56.784" transform="translate(25.374 -0.195)"/><line class="e" y2="56.784" transform="translate(36.658 -0.195)"/><line class="e" y2="56.784" transform="translate(47.933 -0.195)"/><line class="e" y2="56.784" transform="translate(8.461 -0.195)"/><line class="e" y2="56.784" transform="translate(19.736 -0.195)"/><line class="e" y2="56.784" transform="translate(31.02 -0.195)"/><line class="e" y2="56.784" transform="translate(42.296 -0.195)"/><line class="e" y2="56.784" transform="translate(53.571 -0.195)"/><line class="e" y2="56.784" transform="translate(2.823 -56.589)"/><line class="e" y2="56.784" transform="translate(14.099 -56.589)"/><line class="e" y2="56.784" transform="translate(25.374 -56.589)"/><line class="e" y2="56.784" transform="translate(36.658 -56.589)"/><line class="e" y2="56.784" transform="translate(47.933 -56.589)"/><line class="e" y2="56.784" transform="translate(8.461 -56.589)"/><line class="e" y2="56.784" transform="translate(19.736 -56.589)"/><line class="e" y2="56.784" transform="translate(31.02 -56.589)"/><line class="e" y2="56.784" transform="translate(42.296 -56.589)"/><line class="e" y2="56.784" transform="translate(53.571 -56.589)"/></g><g class="f" transform="translate(83.554 -36.564)"><line class="e" y2="56.784" transform="translate(2.815 56.199)"/><line class="e" y2="56.784" transform="translate(14.091 56.199)"/><line class="e" y2="56.784" transform="translate(25.374 56.199)"/><line class="e" y2="56.784" transform="translate(36.65 56.199)"/><line class="e" y2="56.784" transform="translate(47.926 56.199)"/><line class="e" y2="56.784" transform="translate(8.453 56.199)"/><line class="e" y2="56.784" transform="translate(19.736 56.199)"/><line class="e" y2="56.784" transform="translate(31.012 56.199)"/><line class="e" y2="56.784" transform="translate(42.288 56.199)"/><line class="e" y2="56.784" transform="translate(53.571 56.199)"/><line class="e" y2="56.784" transform="translate(2.815 -0.195)"/><line class="e" y2="56.784" transform="translate(14.091 -0.195)"/><line class="e" y2="56.784" transform="translate(25.374 -0.195)"/><line class="e" y2="56.784" transform="translate(36.65 -0.195)"/><line class="e" y2="56.784" transform="translate(47.926 -0.195)"/><line class="e" y2="56.784" transform="translate(8.453 -0.195)"/><line class="e" y2="56.784" transform="translate(19.736 -0.195)"/><line class="e" y2="56.784" transform="translate(31.012 -0.195)"/><line class="e" y2="56.784" transform="translate(42.288 -0.195)"/><line class="e" y2="56.784" transform="translate(53.571 -0.195)"/><line class="e" y2="56.784" transform="translate(2.815 -56.589)"/><line class="e" y2="56.784" transform="translate(14.091 -56.589)"/><line class="e" y2="56.784" transform="translate(25.374 -56.589)"/><line class="e" y2="56.784" transform="translate(36.65 -56.589)"/><line class="e" y2="56.784" transform="translate(47.926 -56.589)"/><line class="e" y2="56.784" transform="translate(8.453 -56.589)"/><line class="e" y2="56.784" transform="translate(19.736 -56.589)"/><line class="e" y2="56.784" transform="translate(31.012 -56.589)"/><line class="e" y2="56.784" transform="translate(42.288 -56.589)"/><line class="e" y2="56.784" transform="translate(53.571 -56.589)"/></g><g class="f" transform="translate(27.16 -36.564)"><line class="e" y2="56.784" transform="translate(2.815 56.199)"/><line class="e" y2="56.784" transform="translate(14.099 56.199)"/><line class="e" y2="56.784" transform="translate(25.374 56.199)"/><line class="e" y2="56.784" transform="translate(36.65 56.199)"/><line class="e" y2="56.784" transform="translate(47.933 56.199)"/><line class="e" y2="56.784" transform="translate(8.453 56.199)"/><line class="e" y2="56.784" transform="translate(19.736 56.199)"/><line class="e" y2="56.784" transform="translate(31.012 56.199)"/><line class="e" y2="56.784" transform="translate(42.288 56.199)"/><line class="e" y2="56.784" transform="translate(53.571 56.199)"/><line class="e" y2="56.784" transform="translate(2.815 -0.195)"/><line class="e" y2="56.784" transform="translate(14.099 -0.195)"/><line class="e" y2="56.784" transform="translate(25.374 -0.195)"/><line class="e" y2="56.784" transform="translate(36.65 -0.195)"/><line class="e" y2="56.784" transform="translate(47.933 -0.195)"/><line class="e" y2="56.784" transform="translate(8.453 -0.195)"/><line class="e" y2="56.784" transform="translate(19.736 -0.195)"/><line class="e" y2="56.784" transform="translate(31.012 -0.195)"/><line class="e" y2="56.784" transform="translate(42.288 -0.195)"/><line class="e" y2="56.784" transform="translate(53.571 -0.195)"/><line class="e" y2="56.784" transform="translate(2.815 -56.589)"/><line class="e" y2="56.784" transform="translate(14.099 -56.589)"/><line class="e" y2="56.784" transform="translate(25.374 -56.589)"/><line class="e" y2="56.784" transform="translate(36.65 -56.589)"/><line class="e" y2="56.784" transform="translate(47.933 -56.589)"/><line class="e" y2="56.784" transform="translate(8.453 -56.589)"/><line class="e" y2="56.784" transform="translate(19.736 -56.589)"/><line class="e" y2="56.784" transform="translate(31.012 -56.589)"/><line class="e" y2="56.784" transform="translate(42.288 -56.589)"/><line class="e" y2="56.784" transform="translate(53.571 -56.589)"/></g><g class="g" transform="translate(-29.234 -36.564)"><line class="e" y2="56.784" transform="translate(2.815 56.199)"/><line class="e" y2="56.784" transform="translate(14.099 56.199)"/><line class="e" y2="56.784" transform="translate(25.374 56.199)"/><line class="e" y2="56.784" transform="translate(36.65 56.199)"/><line class="e" y2="56.784" transform="translate(47.933 56.199)"/><line class="e" y2="56.784" transform="translate(8.461 56.199)"/><line class="e" y2="56.784" transform="translate(19.736 56.199)"/><line class="e" y2="56.784" transform="translate(31.012 56.199)"/><line class="e" y2="56.784" transform="translate(42.296 56.199)"/><line class="e" y2="56.784" transform="translate(53.571 56.199)"/><line class="e" y2="56.784" transform="translate(2.815 -0.195)"/><line class="e" y2="56.784" transform="translate(14.099 -0.195)"/><line class="e" y2="56.784" transform="translate(25.374 -0.195)"/><line class="e" y2="56.784" transform="translate(36.65 -0.195)"/><line class="e" y2="56.784" transform="translate(47.933 -0.195)"/><line class="e" y2="56.784" transform="translate(8.461 -0.195)"/><line class="e" y2="56.784" transform="translate(19.736 -0.195)"/><line class="e" y2="56.784" transform="translate(31.012 -0.195)"/><line class="e" y2="56.784" transform="translate(42.296 -0.195)"/><line class="e" y2="56.784" transform="translate(53.571 -0.195)"/><line class="e" y2="56.784" transform="translate(2.815 -56.589)"/><line class="e" y2="56.784" transform="translate(14.099 -56.589)"/><line class="e" y2="56.784" transform="translate(25.374 -56.589)"/><line class="e" y2="56.784" transform="translate(36.65 -56.589)"/><line class="e" y2="56.784" transform="translate(47.933 -56.589)"/><line class="e" y2="56.784" transform="translate(8.461 -56.589)"/><line class="e" y2="56.784" transform="translate(19.736 -56.589)"/><line class="e" y2="56.784" transform="translate(31.012 -56.589)"/><line class="e" y2="56.784" transform="translate(42.296 -56.589)"/><line class="e" y2="56.784" transform="translate(53.571 -56.589)"/></g><g class="f" transform="translate(83.554 76.224)"><line class="e" y2="56.784" transform="translate(2.815 56.191)"/><line class="e" y2="56.784" transform="translate(14.091 56.191)"/><line class="e" y2="56.784" transform="translate(25.374 56.191)"/><line class="e" y2="56.784" transform="translate(36.65 56.191)"/><line class="e" y2="56.784" transform="translate(47.926 56.191)"/><line class="e" y2="56.784" transform="translate(8.453 56.191)"/><line class="e" y2="56.784" transform="translate(19.736 56.191)"/><line class="e" y2="56.784" transform="translate(31.012 56.191)"/><line class="e" y2="56.784" transform="translate(42.288 56.191)"/><line class="e" y2="56.784" transform="translate(53.571 56.191)"/><line class="e" y2="56.792" transform="translate(2.815 -0.203)"/><line class="e" y2="56.792" transform="translate(14.091 -0.203)"/><line class="e" y2="56.792" transform="translate(25.374 -0.203)"/><line class="e" y2="56.792" transform="translate(36.65 -0.203)"/><line class="e" y2="56.792" transform="translate(47.926 -0.203)"/><line class="e" y2="56.792" transform="translate(8.453 -0.203)"/><line class="e" y2="56.792" transform="translate(19.736 -0.203)"/><line class="e" y2="56.792" transform="translate(31.012 -0.203)"/><line class="e" y2="56.792" transform="translate(42.288 -0.203)"/><line class="e" y2="56.792" transform="translate(53.571 -0.203)"/><line class="e" y2="56.784" transform="translate(2.815 -56.589)"/><line class="e" y2="56.784" transform="translate(14.091 -56.589)"/><line class="e" y2="56.784" transform="translate(25.374 -56.589)"/><line class="e" y2="56.784" transform="translate(36.65 -56.589)"/><line class="e" y2="56.784" transform="translate(47.926 -56.589)"/><line class="e" y2="56.784" transform="translate(8.453 -56.589)"/><line class="e" y2="56.784" transform="translate(19.736 -56.589)"/><line class="e" y2="56.784" transform="translate(31.012 -56.589)"/><line class="e" y2="56.784" transform="translate(42.288 -56.589)"/><line class="e" y2="56.784" transform="translate(53.571 -56.589)"/></g><g class="f" transform="translate(27.16 76.224)"><line class="e" y2="56.784" transform="translate(2.815 56.191)"/><line class="e" y2="56.784" transform="translate(14.099 56.191)"/><line class="e" y2="56.784" transform="translate(25.374 56.191)"/><line class="e" y2="56.784" transform="translate(36.65 56.191)"/><line class="e" y2="56.784" transform="translate(47.933 56.191)"/><line class="e" y2="56.784" transform="translate(8.453 56.191)"/><line class="e" y2="56.784" transform="translate(19.736 56.191)"/><line class="e" y2="56.784" transform="translate(31.012 56.191)"/><line class="e" y2="56.784" transform="translate(42.288 56.191)"/><line class="e" y2="56.784" transform="translate(53.571 56.191)"/><line class="e" y2="56.792" transform="translate(2.815 -0.203)"/><line class="e" y2="56.792" transform="translate(14.099 -0.203)"/><line class="e" y2="56.792" transform="translate(25.374 -0.203)"/><line class="e" y2="56.792" transform="translate(36.65 -0.203)"/><line class="e" y2="56.792" transform="translate(47.933 -0.203)"/><line class="e" y2="56.792" transform="translate(8.453 -0.203)"/><line class="e" y2="56.792" transform="translate(19.736 -0.203)"/><line class="e" y2="56.792" transform="translate(31.012 -0.203)"/><line class="e" y2="56.792" transform="translate(42.288 -0.203)"/><line class="e" y2="56.792" transform="translate(53.571 -0.203)"/><line class="e" y2="56.784" transform="translate(2.815 -56.589)"/><line class="e" y2="56.784" transform="translate(14.099 -56.589)"/><line class="e" y2="56.784" transform="translate(25.374 -56.589)"/><line class="e" y2="56.784" transform="translate(36.65 -56.589)"/><line class="e" y2="56.784" transform="translate(47.933 -56.589)"/><line class="e" y2="56.784" transform="translate(8.453 -56.589)"/><line class="e" y2="56.784" transform="translate(19.736 -56.589)"/><line class="e" y2="56.784" transform="translate(31.012 -56.589)"/><line class="e" y2="56.784" transform="translate(42.288 -56.589)"/><line class="e" y2="56.784" transform="translate(53.571 -56.589)"/></g><g class="f" transform="translate(83.554 19.83)"><line class="e" y2="56.792" transform="translate(2.815 56.191)"/><line class="e" y2="56.792" transform="translate(14.091 56.191)"/><line class="e" y2="56.792" transform="translate(25.374 56.191)"/><line class="e" y2="56.792" transform="translate(36.65 56.191)"/><line class="e" y2="56.792" transform="translate(47.926 56.191)"/><line class="e" y2="56.792" transform="translate(8.453 56.191)"/><line class="e" y2="56.792" transform="translate(19.736 56.191)"/><line class="e" y2="56.792" transform="translate(31.012 56.191)"/><line class="e" y2="56.792" transform="translate(42.288 56.191)"/><line class="e" y2="56.792" transform="translate(53.571 56.191)"/><line class="e" y2="56.784" transform="translate(2.815 -0.195)"/><line class="e" y2="56.784" transform="translate(14.091 -0.195)"/><line class="e" y2="56.784" transform="translate(25.374 -0.195)"/><line class="e" y2="56.784" transform="translate(36.65 -0.195)"/><line class="e" y2="56.784" transform="translate(47.926 -0.195)"/><line class="e" y2="56.784" transform="translate(8.453 -0.195)"/><line class="e" y2="56.784" transform="translate(19.736 -0.195)"/><line class="e" y2="56.784" transform="translate(31.012 -0.195)"/><line class="e" y2="56.784" transform="translate(42.288 -0.195)"/><line class="e" y2="56.784" transform="translate(53.571 -0.195)"/><line class="e" y2="56.784" transform="translate(2.815 -56.589)"/><line class="e" y2="56.784" transform="translate(14.091 -56.589)"/><line class="e" y2="56.784" transform="translate(25.374 -56.589)"/><line class="e" y2="56.784" transform="translate(36.65 -56.589)"/><line class="e" y2="56.784" transform="translate(47.926 -56.589)"/><line class="e" y2="56.784" transform="translate(8.453 -56.589)"/><line class="e" y2="56.784" transform="translate(19.736 -56.589)"/><line class="e" y2="56.784" transform="translate(31.012 -56.589)"/><line class="e" y2="56.784" transform="translate(42.288 -56.589)"/><line class="e" y2="56.784" transform="translate(53.571 -56.589)"/></g><g class="f" transform="translate(27.16 19.83)"><line class="e" y2="56.792" transform="translate(2.815 56.191)"/><line class="e" y2="56.792" transform="translate(14.099 56.191)"/><line class="e" y2="56.792" transform="translate(25.374 56.191)"/><line class="e" y2="56.792" transform="translate(36.65 56.191)"/><line class="e" y2="56.792" transform="translate(47.933 56.191)"/><line class="e" y2="56.792" transform="translate(8.453 56.191)"/><line class="e" y2="56.792" transform="translate(19.736 56.191)"/><line class="e" y2="56.792" transform="translate(31.012 56.191)"/><line class="e" y2="56.792" transform="translate(42.288 56.191)"/><line class="e" y2="56.792" transform="translate(53.571 56.191)"/><line class="e" y2="56.784" transform="translate(2.815 -0.195)"/><line class="e" y2="56.784" transform="translate(14.099 -0.195)"/><line class="e" y2="56.784" transform="translate(25.374 -0.195)"/><line class="e" y2="56.784" transform="translate(36.65 -0.195)"/><line class="e" y2="56.784" transform="translate(47.933 -0.195)"/><line class="e" y2="56.784" transform="translate(8.453 -0.195)"/><line class="e" y2="56.784" transform="translate(19.736 -0.195)"/><line class="e" y2="56.784" transform="translate(31.012 -0.195)"/><line class="e" y2="56.784" transform="translate(42.288 -0.195)"/><line class="e" y2="56.784" transform="translate(53.571 -0.195)"/><line class="e" y2="56.784" transform="translate(2.815 -56.589)"/><line class="e" y2="56.784" transform="translate(14.099 -56.589)"/><line class="e" y2="56.784" transform="translate(25.374 -56.589)"/><line class="e" y2="56.784" transform="translate(36.65 -56.589)"/><line class="e" y2="56.784" transform="translate(47.933 -56.589)"/><line class="e" y2="56.784" transform="translate(8.453 -56.589)"/><line class="e" y2="56.784" transform="translate(19.736 -56.589)"/><line class="e" y2="56.784" transform="translate(31.012 -56.589)"/><line class="e" y2="56.784" transform="translate(42.288 -56.589)"/><line class="e" y2="56.784" transform="translate(53.571 -56.589)"/></g></g></g></g></g></svg>