<svg xmlns="http://www.w3.org/2000/svg" width="208" height="40" viewBox="0 0 208 40"><defs><style>.a,.d{fill:#4285f4;}.b,.h{fill:none;}.c,.i{fill:#fff;}.d,.e,.f,.g,.h{fill-rule:evenodd;}.e{fill:#34a853;}.f{fill:#fbbc05;}.g{fill:#ea4335;}.i{font-size:14px;font-family:Roboto-Medium, Roboto;font-weight:500;}</style></defs><g transform="translate(-84 -248)"><g transform="translate(84 248)"><g transform="translate(0)"><rect class="a" width="208" height="40" rx="2"/><rect class="b" width="208" height="40" rx="2"/><rect class="b" width="208" height="40" rx="2"/><rect class="b" width="208" height="40" rx="2"/><g transform="translate(1 1)"><rect class="c" width="38" height="38" rx="1"/><rect class="b" width="38" height="38" rx="1"/><rect class="b" width="38" height="38" rx="1"/><rect class="b" width="38" height="38" rx="1"/></g><g transform="translate(11 11)"><path class="d" d="M17.64,9.2a10.347,10.347,0,0,0-.164-1.841H9v3.481h4.844a4.14,4.14,0,0,1-1.8,2.716v2.258h2.909A8.777,8.777,0,0,0,17.64,9.2Z"/><path class="e" d="M9,18a8.592,8.592,0,0,0,5.956-2.181l-2.909-2.258A5.43,5.43,0,0,1,3.964,10.71H.957v2.332A9,9,0,0,0,9,18Z"/><path class="f" d="M3.964,10.71a5.321,5.321,0,0,1,0-3.42V4.958H.957a9.011,9.011,0,0,0,0,8.084L3.964,10.71Z"/><path class="g" d="M9,3.58a4.862,4.862,0,0,1,3.441,1.346l2.581-2.581A8.649,8.649,0,0,0,9,0,9,9,0,0,0,.957,4.958L3.964,7.29A5.364,5.364,0,0,1,9,3.58Z"/><path class="h" d="M0,0H18V18H0Z"/></g></g></g><text class="i" transform="translate(133 273)"><tspan x="0" y="0">Sign in with Google</tspan></text></g></svg>