<svg xmlns="http://www.w3.org/2000/svg" width="445.131" height="317.405" viewBox="0 0 445.131 317.405"><defs><style>.a,.c,.d{fill:none;}.b{fill:#ffd54a;}.c{stroke:#68dea4;}.c,.d{stroke-dasharray:1 4;}.d{stroke:#ffd54a;}</style></defs><g transform="translate(-485.544 -289.924)"><g transform="translate(809 446)"><g transform="translate(0)"><rect class="a" width="121" height="122" transform="translate(0.675)"/><path class="b" d="M1.737,87.349c3.009-.534,9.123-2.184,9.7-2.426a32.778,32.778,0,0,0,17.881-10.7,55.1,55.1,0,0,0,6.115-9.85c3.324-6.6,5.945-13.587,10.19-19.6s10.578-11.136,17.93-11.6a57.042,57.042,0,0,1,10.336.922,26.689,26.689,0,0,0,13.659-1.65,25.16,25.16,0,0,0,10.871-10.36,43.477,43.477,0,0,0,3.177-6.6c.51-1.262.971-2.62,1.383-3.955.146-.51.316-1.771.558-2.79a16.984,16.984,0,0,0,13,6.115,18.366,18.366,0,0,0,4.513-.632c-.194.437-.388.825-.413.922-.655,1.6-1.31,3.2-2.038,4.852a98.559,98.559,0,0,1-4.852,9.389A41.827,41.827,0,0,1,99.538,44.308h-.17a42.7,42.7,0,0,1-20.308,5.046c-7.036.194-14.072-.631-21.108-1.116a6.575,6.575,0,0,0-4.052.631,6.527,6.527,0,0,0-1.965,2.572C46.5,61.85,42.231,73.423,32.381,80.556c-8.758,6.235-19.41,8.832-30.012,10.505A1.868,1.868,0,0,1,.21,89.436h0a1.844,1.844,0,0,1,1.529-2.086Z" transform="translate(-0.19 12.796)"/><path class="b" d="M0,9.391H0s8.54-7.279,17.445,5.532A15.843,15.843,0,0,1,0,9.391Z" transform="translate(103.885 10.786)"/></g></g><path class="c" d="M3163.333,4010.667s-40,74.667-109.333,17.333,18.352-92.573-40-181.333S2811.8,3868.958,2831.861,3738" transform="translate(-2344 -3443)"/><path class="d" d="M3163.333,4010.667s-40,74.667-109.333,17.333,18.352-92.573-40-181.333S2811.8,3868.958,2831.861,3738" transform="translate(-2339 -3448)"/></g></svg>