<svg xmlns="http://www.w3.org/2000/svg" xmlns:xlink="http://www.w3.org/1999/xlink" width="416" height="227" viewBox="0 0 416 227"><defs><style>.a{opacity:0.17;}.b{fill:url(#a);}.c{fill:#68dea4;}.d{fill:#ffd54a;}.e{fill:#843d95;}.f{fill:none;}.g{fill:#191d1d;}</style><linearGradient id="a" x1="0.13" x2="0.865" y2="1.278" gradientUnits="objectBoundingBox"><stop offset="0" stop-color="#68dea4"/><stop offset="1" stop-color="#843d95"/></linearGradient></defs><g transform="translate(0.206 0.184)"><g transform="translate(-0.206 0.029)"><g class="a" transform="translate(4.026 14.761)"><rect class="b" width="370" height="65" rx="32.5" transform="translate(-0.026 50.026)"/><rect class="b" width="309" height="67" rx="33.5" transform="translate(30.974 111.026)"/><rect class="b" width="243" height="69" rx="34.5" transform="translate(30.974 0.026)"/></g><circle class="c" cx="10.5" cy="10.5" r="10.5" transform="translate(315 25.787)"/><circle class="c" cx="13" cy="13" r="13" transform="translate(139 -0.213)"/><circle class="c" cx="13" cy="13" r="13" transform="translate(50 200.787)"/><circle class="d" cx="12" cy="12" r="12" transform="translate(0 176.787)"/><circle class="e" cx="13" cy="13" r="13" transform="translate(390 46.787)"/><circle class="c" cx="10.5" cy="10.5" r="10.5" transform="translate(111 165.787)"/><circle class="e" cx="10" cy="10" r="10" transform="translate(65 88.787)"/><circle class="e" cx="9.5" cy="9.5" r="9.5" transform="translate(250 207.787)"/><path class="d" d="M17.8,0,35.6,32.038H0Z" transform="translate(239.813 58.676) rotate(30)"/><path class="c" d="M12.459,0,24.919,21.359H0Z" transform="translate(49.65 35.171) rotate(-90)"/><path class="d" d="M12.459,0,24.919,21.359H0Z" transform="translate(373.59 127.725) rotate(90)"/><path class="c" d="M12.459,0,24.919,21.359H0Z" transform="translate(167.123 206.04) rotate(-90)"/></g><g transform="translate(115.2 26.197)"><g transform="translate(0 0)"><rect class="f" width="178" height="179" transform="translate(-0.406 -0.381)"/><path class="g" d="M175.26,124.077c-4.414-.783-13.385-3.2-14.239-3.56a48.093,48.093,0,0,1-26.236-15.7,80.839,80.839,0,0,1-8.972-14.453c-4.877-9.683-8.723-19.935-14.951-28.763S95.342,45.264,84.556,44.587A83.692,83.692,0,0,0,69.391,45.94a39.158,39.158,0,0,1-20.04-2.421,36.915,36.915,0,0,1-15.95-15.2,63.79,63.79,0,0,1-4.662-9.683c-.748-1.851-1.424-3.844-2.029-5.8-.214-.748-.463-2.6-.819-4.094a24.919,24.919,0,0,1-19.08,8.972A26.947,26.947,0,0,1,.19,16.785c.285.641.569,1.21.605,1.353.961,2.349,1.922,4.7,2.991,7.119a144.607,144.607,0,0,0,7.12,13.776,61.37,61.37,0,0,0,20.86,21.893h.249a62.652,62.652,0,0,0,29.8,7.4c10.323.285,20.647-.926,30.97-1.637a9.647,9.647,0,0,1,5.945.926,9.576,9.576,0,0,1,2.883,3.773c7.975,15.271,14.239,32.252,28.691,42.717,12.85,9.149,28.478,12.958,44.033,15.414a2.741,2.741,0,0,0,3.168-2.385h0a2.705,2.705,0,0,0-2.243-3.061Z" transform="translate(0.586 22.477)"/><path class="g" d="M25.595,10.353h0S13.064-.327,0,18.469a23.245,23.245,0,0,0,25.595-8.116Z" transform="translate(0.099 18.871)"/></g></g></g></svg>