<svg xmlns="http://www.w3.org/2000/svg" width="25.195" height="24.667" viewBox="0 0 25.195 24.667"><defs><style>.a{fill:none;}.b{fill:#fff;}</style></defs><g transform="translate(0)"><rect class="a" width="25.195" height="23.016" transform="translate(0 0.825)"/><path class="b" d="M22.068,8.179h-.135V4.021A3.912,3.912,0,0,0,18.15,0H11.492A3.912,3.912,0,0,0,7.708,4.021V8.179H7.574A1.641,1.641,0,0,0,6,9.867V22.984a1.636,1.636,0,0,0,1.574,1.682H22.068a1.636,1.636,0,0,0,1.574-1.682V9.867a1.641,1.641,0,0,0-1.574-1.687Zm-2.4,0H9.974V4.021A1.573,1.573,0,0,1,11.492,2.4H18.15a1.573,1.573,0,0,1,1.518,1.618Z" transform="translate(-1.914)"/></g></svg>