<svg xmlns="http://www.w3.org/2000/svg" width="21" height="15.752" viewBox="0 0 21 15.752"><path d="M20.859,67.478a3.189,3.189,0,0,0-3.036-3.331c-2.273-.106-4.59-.147-6.959-.147h-.738c-2.363,0-4.685.041-6.957.148A3.2,3.2,0,0,0,.138,67.487c-.1,1.46-.146,2.92-.144,4.381s.042,2.922.139,4.385A3.2,3.2,0,0,0,3.165,79.6c2.387.111,4.836.16,7.326.156s4.936-.044,7.326-.156a3.2,3.2,0,0,0,3.036-3.343c.1-1.464.144-2.925.139-4.389S20.957,68.941,20.859,67.478ZM8.485,75.892V67.831l5.948,4.028Z" transform="translate(0.006 -64)"/></svg>