<svg xmlns="http://www.w3.org/2000/svg" width="21" height="21" viewBox="0 0 21 21"><g transform="translate(-32 -32)"><path d="M46.875,33.75a4.388,4.388,0,0,1,4.375,4.375v8.75a4.388,4.388,0,0,1-4.375,4.375h-8.75a4.388,4.388,0,0,1-4.375-4.375v-8.75a4.388,4.388,0,0,1,4.375-4.375h8.75m0-1.75h-8.75A6.143,6.143,0,0,0,32,38.125v8.75A6.143,6.143,0,0,0,38.125,53h8.75A6.143,6.143,0,0,0,53,46.875v-8.75A6.143,6.143,0,0,0,46.875,32Z"/><path d="M350.549,109.107a1.216,1.216,0,1,1,.863-.356A1.219,1.219,0,0,1,350.549,109.107Z" transform="translate(-302.303 -71.134)"/><path d="M149.875,145.958a3.917,3.917,0,1,1-3.917,3.917,3.917,3.917,0,0,1,3.917-3.917m0-1.958a5.875,5.875,0,1,0,5.875,5.875A5.875,5.875,0,0,0,149.875,144Z" transform="translate(-107.375 -107.375)"/></g></svg>