<svg xmlns="http://www.w3.org/2000/svg" width="33" height="33.467" viewBox="0 0 33 33.467"><defs><style>.a{isolation:isolate;}.b{fill:#fff;}.c{fill:none;}</style></defs><g class="a" transform="translate(0 0.244)"><g transform="translate(0 0)"><path class="b" d="M28.508,16.689c0-.586.046-1.166.033-1.752-.449-.332-.905-.684-1.381-1.055a17.33,17.33,0,0,0-5.6-3.381,2.358,2.358,0,0,1-1.844,1.381,1.824,1.824,0,0,1,.371.821,1.414,1.414,0,0,1-.267.651l.808.808-1.238,1.225L18.17,14.168l.8-.808a1.466,1.466,0,0,1-.261-.651,1.818,1.818,0,0,1,.365-.814,2.365,2.365,0,0,1-1.889-1.388,17.292,17.292,0,0,0-5.576,3.368c-.476.378-.938.73-1.394,1.068a13.49,13.49,0,0,0,.078,1.772.879.879,0,0,0-1.329.625,4.631,4.631,0,0,0,1.668,4.273A28.409,28.409,0,0,0,12.352,30a6.716,6.716,0,0,0,2.215,2.645,4.788,4.788,0,0,1-2.345,2.827l.4.756a5.6,5.6,0,0,0,2.664-3.049c.691.5,1.414.958,2.15,1.388a3.909,3.909,0,0,0,1.954.521,4.912,4.912,0,0,0,2.1-.547c.651-.371,1.368-.756,2.019-1.192a11.344,11.344,0,0,0,.951-.717,5.681,5.681,0,0,0,2.814,3.6l.4-.756a4.866,4.866,0,0,1-2.521-3.524A5.909,5.909,0,0,0,26.462,30a57.608,57.608,0,0,0,1.6-8.325c1.042-.476,2.1-2.73,1.759-4.319a.86.86,0,0,0-1.316-.664ZM16.078,23.854H13.766a.508.508,0,1,1,0-1.016h2.313a.508.508,0,0,1,0,1.016Z" transform="translate(-3.324 -3.009)"/><path class="b" d="M17.822,5.557a2.391,2.391,0,0,1,4.742,0,17.932,17.932,0,0,1,6.2,3.648l.423.332a5.863,5.863,0,0,0-.756-2.019A9.4,9.4,0,0,0,27.2,5.967a5.042,5.042,0,0,0,.769-1.635l-.443-.091.482-.228a3.583,3.583,0,0,0,0-1.459l-.567-.117.476-.215A4.449,4.449,0,0,0,26.9.58a3.648,3.648,0,0,0-.554.651A4.905,4.905,0,0,0,25.5,0a3.87,3.87,0,0,0-1.029,3.974A10.084,10.084,0,0,0,20.754,2.9a7.856,7.856,0,0,0-1.107,0,4.619,4.619,0,0,0-.593.078A11.074,11.074,0,0,0,12.3,7.029a6.123,6.123,0,0,0-1.088,2.5l.436-.339A18.1,18.1,0,0,1,17.822,5.557Z" transform="translate(-4.13 0.65)"/><path class="b" d="M24.024,6.18a1.824,1.824,0,0,0-1.765,1.388,1.6,1.6,0,0,0-.059.449,1.824,1.824,0,1,0,3.648,0,1.6,1.6,0,0,0-.059-.436,1.824,1.824,0,0,0-1.765-1.4Zm1.5,1.837a1.5,1.5,0,0,1-3.01,0,1.426,1.426,0,0,1,.091-.5,1.5,1.5,0,0,1,2.827,0A1.427,1.427,0,0,1,25.529,8.017Z" transform="translate(-7.96 -1.24)"/><rect class="c" width="33" height="33" transform="translate(0 -0.244)"/></g></g></svg>