<svg xmlns="http://www.w3.org/2000/svg" width="16" height="15.998" viewBox="0 0 16 15.998"><defs><style>.a{fill:#191d1d;}</style></defs><path class="a" d="M15.934,7.849A5.7,5.7,0,0,0,12.357,6.2,5.715,5.715,0,0,0,13.72,2.5a.214.214,0,0,0-.214-.214A5.715,5.715,0,0,0,9.8,3.644,5.76,5.76,0,0,0,8.152.064a.224.224,0,0,0-.3,0A5.7,5.7,0,0,0,6.194,3.644,5.705,5.705,0,0,0,2.5,2.281a.214.214,0,0,0-.214.214A5.715,5.715,0,0,0,3.644,6.2,5.692,5.692,0,0,0,.063,7.852a.208.208,0,0,0,0,.3A5.7,5.7,0,0,0,3.641,9.807a5.721,5.721,0,0,0-1.36,3.7.214.214,0,0,0,.214.214,5.705,5.705,0,0,0,3.7-1.363,5.692,5.692,0,0,0,1.654,3.581A.211.211,0,0,0,8,16a.224.224,0,0,0,.157-.064,5.737,5.737,0,0,0,1.651-3.581,5.715,5.715,0,0,0,3.7,1.363.214.214,0,0,0,.214-.214,5.705,5.705,0,0,0-1.363-3.7,5.7,5.7,0,0,0,3.574-1.654.211.211,0,0,0,0-.3Z" transform="translate(0.001 -0.004)"/></svg>