<svg xmlns="http://www.w3.org/2000/svg" width="61.027" height="79.687" viewBox="0 0 61.027 79.687"><defs><style>.a{fill:#00a651;}.b{fill:#231f20;}.c{fill:#ed1c24;}</style></defs><path class="a" d="M47.453,11.691c1.616-2.477,3.366-4.9,4.86-7.452A2.693,2.693,0,0,0,51.869.826a2.693,2.693,0,0,0-3.911.364c-.841,1.117-1.575,2.383-2.343,3.561l-2.76,4.227L44.2,8.635a30.69,30.69,0,0,0-27.856,0l1.346.343c-1.73-2.545-3.332-5.143-5.055-7.627A2.76,2.76,0,0,0,9.654.086a2.693,2.693,0,0,0-1.8,3.561A22.758,22.758,0,0,0,10.18,7.316l2.854,4.376.343-1.313A30.791,30.791,0,0,0,2.014,24.5a30.138,30.138,0,0,0-2.02,9.162C-.093,35.057.3,36.39,1.94,36.477h.276c4.847.067,9.707,0,14.554,0H58.533c1.629-.088,2.019-1.42,1.945-2.814a31.034,31.034,0,0,0-.673-4.786,30.293,30.293,0,0,0-9.169-15.752,31.793,31.793,0,0,0-3.521-2.747c-1.023-.673-1.986.963-.969,1.656A28.6,28.6,0,0,1,56.83,25.585a29.408,29.408,0,0,1,1.2,4.187c.155.727.276,1.454.37,2.188.04.35.074.673.108,1.05a4.921,4.921,0,0,1,.081,1.346c-.094.337,0,.155-.209.229a2.282,2.282,0,0,1-.525,0H3.488a5.385,5.385,0,0,1-1.4,0c-.242-.081-.168.121-.2-.364a19.347,19.347,0,0,1,.579-4.557,28.63,28.63,0,0,1,8.542-14.991,29.262,29.262,0,0,1,3.332-2.639.976.976,0,0,0,.343-1.346L10.025,3.573c-.263-.4-.673-.882-.3-1.346.491-.673,1.1-.155,1.407.316l2.551,3.9,2.289,3.514a.976.976,0,0,0,1.313.343,28.677,28.677,0,0,1,25.917,0,.976.976,0,0,0,1.313-.343l4.625-7.075c.236-.364.444-.835.949-.835.875,0,.794.882.464,1.407-.8,1.252-1.629,2.491-2.444,3.736L45.77,10.722C45.1,11.759,46.78,12.721,47.453,11.691Z" transform="translate(0.017 -0.016)"/><path class="a" d="M24.931,32.413a1.6,1.6,0,0,1,0-3.2,1.6,1.6,0,0,1,0,3.2c-1.232.054-1.239,1.972,0,1.919a3.521,3.521,0,1,0-3.521-3.521,3.575,3.575,0,0,0,3.521,3.521C26.163,34.385,26.163,32.48,24.931,32.413Z" transform="translate(-6.986 -8.93)"/><path class="a" d="M61.48,32.413c-2.02-.094-2.073-3.2,0-3.2a1.6,1.6,0,0,1,0,3.2c-1.225.054-1.232,1.972,0,1.919A3.521,3.521,0,1,0,58,30.811a3.575,3.575,0,0,0,3.514,3.521C62.712,34.385,62.712,32.48,61.48,32.413Z" transform="translate(-18.945 -8.93)"/><path class="b" d="M0,72.5c0-1.6.916-2.693,3.366-2.693H6.732v-.868c0-1.7-.518-2.37-2.821-2.37a8.644,8.644,0,0,0-2.881.5v-.9a8.785,8.785,0,0,1,3.07-.5c2.477,0,3.642.936,3.642,3.245V74.9H6.88l-.094-1.124a4.562,4.562,0,0,1-3.642,1.346C1.427,75.121,0,74.306,0,72.5Zm6.732.31V70.6H3.366C1.575,70.6,1,71.277,1,72.468s.916,1.717,2.383,1.717A4.113,4.113,0,0,0,6.732,72.8Z" transform="translate(0.011 -21.473)"/><path class="b" d="M15.61,65.9h.936l.094,1.1a5.419,5.419,0,0,1,3.655-1.3c2.255,0,3.224,1.01,3.224,3.265v5.964h-1.07V68.961c0-1.77-.592-2.4-2.612-2.4a4.551,4.551,0,0,0-3.184,1.346v7H15.61Z" transform="translate(-5.091 -21.486)"/><path class="b" d="M30.87,68.7c0-3.278,1.6-4.786,4.14-4.786a4.779,4.779,0,0,1,3.09.956V60.29h1.043V73.141h-.875l-.094-1.01a4.409,4.409,0,0,1-3.258,1.2C32.533,73.329,30.87,71.976,30.87,68.7Zm7.23,2.558V65.783a4.039,4.039,0,0,0-2.807-.976c-2.228,0-3.366,1.2-3.366,3.9,0,2.578,1.05,3.776,3.258,3.776A3.83,3.83,0,0,0,38.1,71.256Z" transform="translate(-10.078 -19.715)"/><path class="b" d="M47.41,65.905h.915l.114,1.259a10.219,10.219,0,0,1,3.366-1.454v.868a11.222,11.222,0,0,0-3.366,1.427v6.907H47.41Z" transform="translate(-15.484 -21.487)"/><path class="b" d="M55.26,70.382c0-3.049,1.292-4.712,4.308-4.712S63.9,67.333,63.9,70.382s-1.279,4.712-4.328,4.712S55.26,73.452,55.26,70.382Zm7.587,0c0-2.572-.9-3.8-3.278-3.8s-3.278,1.225-3.278,3.8.875,3.81,3.278,3.81S62.847,72.974,62.847,70.382Z" transform="translate(-18.049 -21.474)"/><path class="b" d="M71.624,65.139H70.21l.114-.875h2.343V73.3H71.624Zm-.135-4.369h1.2v1.144h-1.2Z" transform="translate(-22.936 -19.872)"/><path class="b" d="M77.57,68.7c0-3.278,1.6-4.786,4.14-4.786a4.779,4.779,0,0,1,3.09.956V60.29h1.05V73.141h-.882l-.094-1.01a4.4,4.4,0,0,1-3.258,1.2C79.206,73.329,77.57,71.976,77.57,68.7Zm7.23,2.558V65.783a4.039,4.039,0,0,0-2.8-.976c-2.235,0-3.4,1.2-3.4,3.9,0,2.578,1.05,3.776,3.265,3.776A3.817,3.817,0,0,0,84.8,71.256Z" transform="translate(-25.341 -19.715)"/><path class="b" d="M14.715,102.176v5.19H.276l-.061-3.723,6.059-6.53c.438-.458.8-.862,1.091-1.218a11.37,11.37,0,0,0,.74-1.064,4.329,4.329,0,0,0,.451-1.023,3.884,3.884,0,0,0,.135-1.01,1.818,1.818,0,0,0-.485-1.3,1.656,1.656,0,0,0-1.245-.5A3.568,3.568,0,0,0,4.1,92.7L0,89.715a8.078,8.078,0,0,1,1.185-1.548A8.63,8.63,0,0,1,2.78,86.9a7.406,7.406,0,0,1,2.114-.889,9.836,9.836,0,0,1,2.578-.323,8.024,8.024,0,0,1,2.693.451,7.142,7.142,0,0,1,2.242,1.252,5.776,5.776,0,0,1,1.548,2.019,6.22,6.22,0,0,1,.579,2.693,9.424,9.424,0,0,1-.256,2.322,7.735,7.735,0,0,1-1.03,2.174,17.74,17.74,0,0,1-2.208,2.693l-2.693,2.814v.061Z" transform="translate(0.011 -28.017)"/><path class="c" d="M43.852,94.12a6.119,6.119,0,0,1,3.413,3.541,7.7,7.7,0,0,1,.512,2.807,7.338,7.338,0,0,1-1.023,3.851,6.914,6.914,0,0,1-2.8,2.592,8.535,8.535,0,0,1-4,.929,9.9,9.9,0,0,1-7.674-3.177l4.1-3.366a4.207,4.207,0,0,0,3.009,1.346,2.612,2.612,0,0,0,1.831-.673,2.168,2.168,0,0,0,.754-1.656,2.693,2.693,0,0,0-.114-.788,1.966,1.966,0,0,0-.323-.626,2.6,2.6,0,0,0-.451-.451,2.3,2.3,0,0,0-.532-.323,3.234,3.234,0,0,0-.545-.182,2.348,2.348,0,0,0-.512-.061,3.173,3.173,0,0,0-.774.088,3.368,3.368,0,0,0-.815.31,6.55,6.55,0,0,0-.976.619l-3-1.185.673-11.585H46.592v5.163h-7.4l-.168,2.693a9.15,9.15,0,0,1,2.356-.4A6.106,6.106,0,0,1,43.852,94.12Z" transform="translate(-10.539 -28.161)"/><path class="a" d="M74.413,104.3H66.12V101l9.424-14.81h4.389V99.653h2.693v4.665H79.933v3.231h-5.52Zm.619-4.228V94.86l-3.265,5.21Z" transform="translate(-21.599 -28.18)"/></svg>