<svg xmlns="http://www.w3.org/2000/svg" width="52.168" height="75.706" viewBox="0 0 52.168 75.706"><defs><style>.a{fill:#21649c;}.b{fill:#2fc0d1;}.c{fill:#8e74b4;}.d{fill:#faa31b;}.e{fill:#7bc254;}.f{fill:#fff;}</style></defs><path class="a" d="M45.535,62.745V61.49H44.28A1.815,1.815,0,0,1,45.535,62.745Z" transform="translate(1.607 2.28)"/><path class="b" d="M4.977,65.047a2.406,2.406,0,0,0-1.867-.788,3.4,3.4,0,0,0,0,6.772,2.4,2.4,0,0,0,1.908-.778.6.6,0,0,0,.6.6H6.906V64.435H4.977ZM3.452,69.2a1.566,1.566,0,0,1,0-3.111,1.566,1.566,0,0,1,0,3.111Zm8.7-4.957a2.427,2.427,0,0,0-1.919.788v-.114a.5.5,0,0,0-.488-.5H8.3v7.063a1.929,1.929,0,0,0,1.939,1.95V70.253a2.427,2.427,0,0,0,1.919.778,3.4,3.4,0,0,0,0-6.772ZM11.77,69.2a1.566,1.566,0,0,1,0-3.111,1.566,1.566,0,0,1,0,3.111Zm8.369-4.957a2.416,2.416,0,0,0-1.908.788.612.612,0,0,0-.6-.612H16.3V71.56a1.877,1.877,0,0,0,1.867,1.867h.062V70.253a2.427,2.427,0,0,0,1.919.778,3.4,3.4,0,0,0,0-6.772ZM19.755,69.2a1.566,1.566,0,1,1,1.535-1.566A1.462,1.462,0,0,1,19.755,69.2Zm6.222-2.9c0-.228.2-.363.539-.363a.892.892,0,0,1,.767.425.187.187,0,0,0,.239.062l1.317-.705a.176.176,0,0,0,.073-.249h0a2.8,2.8,0,0,0-2.385-1.2c-1.338,0-2.52.705-2.52,2.074,0,2.219,3.111,1.846,3.111,2.551,0,.259-.228.4-.695.4a1.037,1.037,0,0,1-1.037-.581.187.187,0,0,0-.249-.083h0l-.83.477a.695.695,0,0,0-.259.954.467.467,0,0,0,.1.145,3.111,3.111,0,0,0,2.25.8c1.39,0,2.676-.622,2.676-2.074,0-2.375-3.111-1.887-3.111-2.624Zm7.975,2.7a1.856,1.856,0,0,0,1.856,1.846h.073V61.5H33.973Zm8-3.962a2.406,2.406,0,0,0-1.908-.788,3.4,3.4,0,0,0,0,6.772,2.4,2.4,0,0,0,1.908-.778V70.4a.436.436,0,0,0,.436.436h1.493v-6.4H41.969Zm-1.524,4.148a1.566,1.566,0,1,1,1.524-1.566,1.462,1.462,0,0,1-1.5,1.607Zm8.7-4.957a2.427,2.427,0,0,0-1.919.788V63.761a1.919,1.919,0,0,0-1.919-1.929h0v8.981h1.919v-.6a2.427,2.427,0,0,0,1.919.778,3.4,3.4,0,0,0,0-6.772Zm-.384,5a1.566,1.566,0,1,1,1.524-1.566,1.462,1.462,0,0,1-1.524,1.566Zm-17.381-5a1.162,1.162,0,1,0,1.151,1.162h0a1.162,1.162,0,0,0-1.151-1.162Zm0,4.325A1.162,1.162,0,1,0,32.511,69.7h0a1.162,1.162,0,0,0-1.151-1.161Z" transform="translate(-0.033 2.28)"/><path class="b" d="M22.052,55.317,2.938,36.214a5.6,5.6,0,0,1,0-7.9l19.113-19.1a5.579,5.579,0,0,1,7.9,0h0l19.1,19.1a5.6,5.6,0,0,1,0,7.9l-19.1,19.1a5.579,5.579,0,0,1-7.9,0Z" transform="translate(0.014 0.281)"/><ellipse class="c" cx="5.268" cy="5.268" rx="5.268" ry="5.268" transform="translate(30.393)"/><ellipse class="d" cx="3.36" cy="3.36" rx="3.36" ry="3.36" transform="translate(44.103 0.985)"/><ellipse class="e" cx="4.408" cy="4.408" rx="4.408" ry="4.408" transform="translate(39.219 9.852)"/><path class="f" d="M37.389,22.191l-9.852,9.852a2.333,2.333,0,0,1-3.288,0h0l-9.9-9.883L4.69,31.8,16.253,43.337h0l8.006,8.006a2.333,2.333,0,0,0,3.288,0h0l19.5-19.507Z" transform="translate(0.139 0.822)"/></svg>