<svg xmlns="http://www.w3.org/2000/svg" width="81.22" height="76.121" viewBox="0 0 81.22 76.121"><defs><style>.a{fill:#f26322;}</style></defs><g transform="translate(0)"><g transform="translate(22.5 65.046)"><path class="a" d="M24.856,61.49l-1.629,2.93h-.5V61.49H21.27V68.5h1.46V65.732h.5L24.856,68.5h1.788l-2.116-3.427,2.116-3.586Z" transform="translate(-21.27 -61.49)"/><path class="a" d="M32.831,63.087v4.073c0,1.312,1.132,1.47,1.788,1.47a22.671,22.671,0,0,0,2.93-.159V67.2h-2.6c-.328,0-.656,0-.656-.5v-.8l2.771-.169v-1.3l-2.771-.159v-.815c0-.328,0-.5.487-.5H37.39v-1.3a25.242,25.242,0,0,0-3.1-.159,1.481,1.481,0,0,0-1.47,1.492A.52.52,0,0,0,32.831,63.087Z" transform="translate(-20.602 -61.489)"/><path class="a" d="M48.3,65.732,45.859,61.5H44.23v7.013h1.629V64.6L48.3,68.514h1.629V61.49H48.3Z" transform="translate(-19.942 -61.49)"/><path class="a" d="M59.15,64.748,58.093,61.49H56.4l2.116,5.056V68.5H60V66.546l2.327-5.056H60.642Z" transform="translate(-19.239 -61.49)"/><path class="a" d="M69.475,61.49,67.19,68.5h1.629l.5-1.47h2.116l.487,1.47h1.629L71.22,61.49Zm.159,4.231.656-2.285.656,2.285Z" transform="translate(-18.615 -61.49)"/></g><path class="a" d="M48.745,0H49.4l1.946,1.47v.159Q49.4,3.11,45,9.457C38.8,17.6,32.306,27.228,25.43,37.817c-7.987,13.2-12.059,23.8-12.228,31.629l.55,5.86v.5c-.5,0-.656.159-.656.317-1.629,0-2.613-2.444-2.93-7.172Q10.356,56,23.272,35.2c4.6-7.489,12.112-17.761,22.214-31.132h-.169C26.9,8.156,14.513,11.414,8.293,13.7c-3.565,1.629-5.522,3.417-5.522,5.342,0,2.613.815,4.073,2.772,4.887v.4c0,.169-.159.328-.487.328a4.475,4.475,0,0,1-4.4-2.444A14.746,14.746,0,0,1,0,19.041V17.771c0-3.6,6.844-6.844,20.215-9.944L45.973,1.481Z" transform="translate(0)"/><g transform="translate(22.987 38.145)"><path class="a" d="M29.071,40.133c1.3.5,1.957.815,1.957,1.142a59.808,59.808,0,0,0-4.411,6.685,14.481,14.481,0,0,0-1.957,5.384c1.47-.328,4.231-2.771,8.642-7.172l1.47.487C29.061,52.53,25.8,55.461,25,55.3c-2.285-.169-3.269-.815-3.269-1.957v-.656a37.479,37.479,0,0,1,3.755-8.156A16.714,16.714,0,0,1,29.071,40.133Zm2.274-4.073.984.656c.815.815.973,1.3.973,1.629l-.159.159c-.656.815-.984,1.312-1.3,1.142l-.5-.328c-.973-.815-1.3-1.46-1.142-1.788l.169-.328C30.859,36.388,31.028,36.06,31.346,36.06Z" transform="translate(-21.73 -36.06)"/></g><g transform="translate(27.857 42.228)"><path class="a" d="M37.109,39.92c2.285.317,3.427,1.132,3.269,2.444l-.169.487c-.159,1.3-1.788,2.93-4.728,5.056v1.142h.328c2.772-1.312,4.411-1.957,4.57-1.8,2.6-1.142,3.914-1.46,3.914-.815q-4.157,2.444-8.791,4.9l-.159.973c-.656,4.073-2.285,6.516-5.056,7.341l-1.132.159c-1.989-.159-2.962-.762-2.8-1.819l.169-.815c.159-1.64,2.444-3.925,6.516-6.685a8.336,8.336,0,0,0,0-4.083v-2.9a4.157,4.157,0,0,1,3.586-3.427ZM28.477,58.178l.159.159c.815.159,1.957-.973,3.258-3.1l.656-2.116C29.937,55.079,28.636,56.866,28.477,58.178Zm6.844-14.027-.169.815a5.956,5.956,0,0,0,2.772-3.258l-.159-.645a3.724,3.724,0,0,0-2.444,3.1Z" transform="translate(-26.334 -39.92)"/></g><g transform="translate(40.58 39.457)"><path class="a" d="M48,37.3h.317c.984.317,1.47.487,1.47.815-.815,1.3-1.47,2.771-2.116,4.073L46.2,44.631h.159l4.073-3.417c.815-.645,1.3-1.142,1.47-.973,1.3.656,1.788.973,1.788,1.3l-6.019,5.543-2.116,2.274a7.014,7.014,0,0,1,2.274,1.47A7.511,7.511,0,0,1,49.139,54.9v.656c-.169.328-.169.487-.328.487h-.328c-1.142-.159-1.788-.645-1.629-1.3-.487-2.772-1.3-4.231-2.116-4.4q-1.9,2.348-3.586,4.887l-.317.328-.169.159h-.328c-1.3,0-2.116-.159-1.957-.656v-.487c.984-2.116,2.941-5.7,5.871-10.578q2.941-5.141,3.427-6.347Z" transform="translate(-38.361 -37.3)"/></g><g transform="translate(53.304 43.658)"><path class="a" d="M59.2,41.3h.645a2.623,2.623,0,0,1,2.941,1.957h0c0,1.788-.984,4.073-3.1,7.013l.159.159c1.788,0,4.411-1.629,7.828-4.728l.159.815a21.157,21.157,0,0,1-5.046,4.231,6.114,6.114,0,0,1-4.073.815,8.918,8.918,0,0,1-5.056,3.258h-.169c-2.116-.328-3.1-.973-3.1-1.788V51.9c0-2.444,1.957-5.543,6.04-9.129A4.231,4.231,0,0,1,59.2,41.3ZM52.516,52.874v.487a11.637,11.637,0,0,0,3.745-2.93v-.159c-1.3-.487-1.957-.984-1.957-1.47h-.159A6.527,6.527,0,0,0,52.516,52.874ZM56.1,47.828c0,.645.487,1.132,1.3,1.46,2.094-2.6,3.152-4.887,3.152-6.844a7,7,0,0,0-3.914,3.586,12.876,12.876,0,0,0-.487,1.8Z" transform="translate(-50.39 -41.271)"/></g><g transform="translate(63.271 42.228)"><path class="a" d="M70.589,39.92c2.274.317,3.417,1.132,3.258,2.444l-.169.487c-.159,1.3-1.788,2.93-4.728,5.056v1.142h.328c2.772-1.312,4.411-1.957,4.57-1.8,2.613-1.142,3.914-1.46,3.914-.815q-4.157,2.444-8.8,4.9l-.169.973c-.645,4.073-2.285,6.516-5.046,7.341l-1.142.159c-1.957-.328-2.941-.984-2.772-1.788l.159-.815c.159-1.629,2.444-3.914,6.516-6.685a8.293,8.293,0,0,0,0-4.073V43.506a4.168,4.168,0,0,1,3.6-3.427ZM61.915,58.178l.159.159c.815.159,1.957-.973,3.258-3.1l.656-2.116C63.385,55.079,62.127,56.866,61.915,58.178Zm6.844-14.027v.815a6,6,0,0,0,2.772-3.258l-.159-.645a3.893,3.893,0,0,0-2.613,3.1Z" transform="translate(-59.812 -39.92)"/></g></g></svg>