<svg xmlns="http://www.w3.org/2000/svg" width="94.802" height="95.6" viewBox="0 0 94.802 95.6"><defs><style>.a{fill:#843d95;}</style></defs><g transform="translate(-2.6 -2.2)"><path class="a" d="M90.6,57.2a6.9,6.9,0,1,1,6.8-6.9A6.706,6.706,0,0,1,90.6,57.2ZM56.7,9.1a6.829,6.829,0,0,0-6.8-6.9,6.9,6.9,0,0,0,0,13.8A6.706,6.706,0,0,0,56.7,9.1Zm0,81.8A6.829,6.829,0,0,0,49.9,84a6.9,6.9,0,0,0,0,13.8A6.706,6.706,0,0,0,56.7,90.9ZM16.2,50.3a6.829,6.829,0,0,0-6.8-6.9,6.9,6.9,0,0,0,0,13.8A6.706,6.706,0,0,0,16.2,50.3ZM28.4,20.9A6.829,6.829,0,0,0,21.6,14a6.9,6.9,0,0,0,0,13.8A6.706,6.706,0,0,0,28.4,20.9Zm49.9,6.9a6.9,6.9,0,1,0-6.8-6.9A6.706,6.706,0,0,0,78.3,27.8ZM21.6,71.3a6.9,6.9,0,1,0,6.8,6.9A6.706,6.706,0,0,0,21.6,71.3Zm49.9,6.9a6.829,6.829,0,0,0,6.8,6.9,6.9,6.9,0,0,0,0-13.8A6.706,6.706,0,0,0,71.5,78.2ZM66.8,50.3A16.85,16.85,0,1,0,49.9,67.1,16.772,16.772,0,0,0,66.8,50.3Zm-1.5,0A15.3,15.3,0,1,1,50,35,15.3,15.3,0,0,1,65.3,50.3Zm-9.4-6.5A5.848,5.848,0,0,0,50,37.9a5.977,5.977,0,0,0-5.9,5.9A5.911,5.911,0,0,0,50,49.7,5.727,5.727,0,0,0,55.9,43.8Zm-1.8.1a4.1,4.1,0,1,1-8.2,0A4.274,4.274,0,0,1,50,39.7,3.964,3.964,0,0,1,54.1,43.9Zm5.1,14.2c.3-4.5-.9-7.9-2.8-8.7-2.4-1.1-5.1,1.4-5.4,1.8-.5.5-.8.6-1.1.6-.1,0-.4,0-1.1-.6-.2-.4-2.9-2.7-5.3-1.8-1.8.8-3,4.2-2.7,8.7H59.2Zm-15-7c1.1-.5,2.9.8,3.5,1.4a3.529,3.529,0,0,0,2.2,1.1,3.568,3.568,0,0,0,2.2-1.1c.6-.5,2.4-1.9,3.5-1.4.6.2,1.6,1.3,1.8,5.4H42.6C42.6,52.3,43.6,51.3,44.2,51.1Z"/></g></svg>