<svg xmlns="http://www.w3.org/2000/svg" width="89.522" height="95.6" viewBox="0 0 89.522 95.6"><defs><style>.a{fill:#ffd54a;}</style></defs><g transform="translate(-6.691 -1.489)"><g transform="translate(6.691 1.489)"><path class="a" d="M83.541,64.684l.206-6.61A8,8,0,0,0,75.76,49.84H64.818c-.229-.108-.458-.215-.69-.322L73.8,36.456a11.6,11.6,0,0,0,0-13.859L64.3,9.774a20.5,20.5,0,0,0-32.924,0L21.873,22.6a11.6,11.6,0,0,0,0,13.852L31.565,49.52c-.232.106-.458.214-.686.321H19.916a7.994,7.994,0,0,0-7.987,8.241l.206,6.6C8.086,70.34,5.249,77.435,3.252,86.973a8.357,8.357,0,0,0,1.718,6.99c3.835,4.7,9.116,2.549,15.921,3.083a.131.131,0,0,1,.038,0H74.8c6.829-.54,12.081,1.621,15.923-3.107a8.319,8.319,0,0,0,1.7-6.975C90.428,77.436,87.591,70.341,83.541,64.684ZM7.932,91.548a4.551,4.551,0,0,1-.937-3.8A62.5,62.5,0,0,1,12.35,71.6L12.9,89.3a8.409,8.409,0,0,0,1.15,3.919S9.848,93.9,7.932,91.548ZM24.947,34.177a7.791,7.791,0,0,1,0-9.3l9.5-12.822a16.675,16.675,0,0,1,26.782,0l9.494,12.818a7.8,7.8,0,0,1,0,9.313l-11.1,15a1.9,1.9,0,0,0-.314.659H36.387C36.215,49.174,36.532,49.885,24.947,34.177ZM78.952,89.193A4.131,4.131,0,0,1,74.8,93.224H20.909a.032.032,0,0,0-.019,0,4.142,4.142,0,0,1-4.168-4.035l-.745-24c0-.009,0-.018-.005-.027l-.224-7.191a4.175,4.175,0,0,1,4.167-4.3H75.76a4.177,4.177,0,0,1,4.168,4.3C79.743,63.86,78.989,88,78.952,89.193Zm8.807,2.337c-1.937,2.383-4.581,1.512-6.133,1.695a8.453,8.453,0,0,0,1.146-3.916L83.326,71.6a62.509,62.509,0,0,1,5.356,16.149A4.511,4.511,0,0,1,87.759,91.529Z" transform="translate(-3.079 -1.489)"/><path class="a" d="M35.324,39.189h.008c6.1,0,12.97-9.044,17.662-16.632a5.734,5.734,0,0,0-.284-6.464,10.293,10.293,0,0,0-8.228-4.138H26.18a10.294,10.294,0,0,0-8.229,4.139,5.734,5.734,0,0,0-.281,6.464C22.365,30.145,29.237,39.189,35.324,39.189Zm-14.3-20.817a6.456,6.456,0,0,1,5.16-2.594h18.3a6.454,6.454,0,0,1,5.16,2.6,1.928,1.928,0,0,1,.1,2.174c-5.652,9.14-11.174,14.819-14.414,14.819h0c-3.228,0-8.747-5.678-14.4-14.819A1.931,1.931,0,0,1,21.021,18.371Z" transform="translate(9.429 8.047)"/><path class="a" d="M31.243,34.4a9.957,9.957,0,1,0,9.977,9.957A9.968,9.968,0,0,0,31.243,34.4Zm0,16.092A6.135,6.135,0,1,1,37.4,44.352,6.142,6.142,0,0,1,31.243,50.487Z" transform="translate(13.51 28.494)"/></g></g></svg>