<svg xmlns="http://www.w3.org/2000/svg" width="102.05" height="78.1" viewBox="0 0 102.05 78.1"><defs><style>.a{fill:#ffd54a;}</style></defs><g transform="translate(0 0)"><path class="a" d="M33.68,123.181l-5.428-.854-1.388-14.839a12.022,12.022,0,0,0-24,1.5l1.469,15.571a11.927,11.927,0,0,0,7.713,10.449,7.525,7.525,0,0,0,3.755.772l11.387.529a2.056,2.056,0,1,0,.2-4.106l-11.509-.529h-.2a3.351,3.351,0,0,1-1.877-.407l-.245-.122a7.854,7.854,0,0,1-5.142-6.993l-1.428-15.49a7.91,7.91,0,0,1,15.794-.894l1.469,15.571v.691a2.062,2.062,0,0,0,1.755,2.073l7.06,1.1a1.712,1.712,0,0,1,1.469,1.708v17.238a2.043,2.043,0,0,0,2.041,2.033,2.07,2.07,0,0,0,2.041-2.033v-17.2A5.754,5.754,0,0,0,33.68,123.181Z" transform="translate(-2.844 -70.084)"/><path class="a" d="M18.474,53.366A10.733,10.733,0,1,0,7.7,42.633,10.77,10.77,0,0,0,18.474,53.366Zm0-17.36a6.627,6.627,0,1,1-6.652,6.627A6.641,6.641,0,0,1,18.474,36.006Z" transform="translate(-5.718 -31.9)"/><path class="a" d="M189.869,96.266a12.015,12.015,0,0,0-12.733,11.14l-1.428,14.921-5.428.854a5.862,5.862,0,0,0-4.979,5.773v17.2a2.043,2.043,0,0,0,2.041,2.033,2.07,2.07,0,0,0,2.041-2.033v-17.2a1.712,1.712,0,0,1,1.469-1.708l7.06-1.1a2.1,2.1,0,0,0,1.755-2.073v-.61l1.469-15.693a7.909,7.909,0,0,1,15.794.854l-1.469,15.693a7.9,7.9,0,0,1-5.142,6.912l-.245.122a3.641,3.641,0,0,1-1.877.407h-.2l-11.509.529a2.056,2.056,0,1,0,.2,4.106l11.387-.529a7.89,7.89,0,0,0,3.755-.772,11.967,11.967,0,0,0,7.713-10.408l1.469-15.693A11.821,11.821,0,0,0,189.869,96.266Z" transform="translate(-98.998 -70.084)"/><path class="a" d="M206.274,53.366A10.733,10.733,0,1,0,195.5,42.633,10.77,10.77,0,0,0,206.274,53.366Zm0-17.36a6.627,6.627,0,1,1-6.652,6.627A6.641,6.641,0,0,1,206.274,36.006Z" transform="translate(-116.873 -31.9)"/><path class="a" d="M82.041,130.766h35.1a2.033,2.033,0,1,0,0-4.066h-35.1A2.043,2.043,0,0,0,80,128.733,2.017,2.017,0,0,0,82.041,130.766Z" transform="translate(-48.511 -88.158)"/></g></svg>