<svg xmlns="http://www.w3.org/2000/svg" width="101.813" height="67.181" viewBox="0 0 101.813 67.181"><defs><style>.a{fill:#843d95;}</style></defs><g transform="translate(0 0)"><g transform="translate(82.122 10.659)"><path class="a" d="M1017.216,191.579c0,.13,0,.26-.011.39-.011.163.065.488.011.033a2.46,2.46,0,0,1-.13.683c-.065.26-.141.509-.227.758-.043.119-.086.228-.13.347-.076.2-.076.184.022-.043-.043.087-.087.173-.13.271a12.547,12.547,0,0,1-.789,1.322c-.162.238.292-.325-.011.011-.1.108-.184.217-.281.314a7.326,7.326,0,0,1-.606.563c.389-.336-.206.119-.324.2-.043.022-.238.163-.292.152a1.806,1.806,0,0,1,.216-.087c-.076.033-.162.054-.238.087l-.368.1c-.292.076.119-.076.13-.022,0,.011-.357.011-.378.011-.368.022.4.119-.054,0-.1-.033-.206-.043-.3-.076a.527.527,0,0,1-.119-.043c-.195-.076-.162-.054.1.043-.1.033-.476-.249-.573-.314s-.422-.336-.054-.022c-.108-.087-.205-.173-.314-.271a7.758,7.758,0,0,1-.573-.618c-.314-.358.206.325-.054-.076-.054-.076-.108-.163-.162-.238a7.686,7.686,0,0,1-.443-.758c-.065-.119-.357-.791-.184-.347-.108-.271-.205-.542-.292-.824s-.151-.542-.205-.824a1.276,1.276,0,0,1-.043-.271c-.065.433.022.152.011-.033a4.952,4.952,0,0,1,0-.693c.011-.108.1-.563,0-.087.043-.2.076-.379.13-.563.022-.1.065-.184.087-.271.119-.455-.184.336.022-.076a6.922,6.922,0,0,1,.346-.618c.054-.076.346-.433.032-.076a3.891,3.891,0,0,1,.281-.314l.195-.2c.076-.076.562-.433.162-.152.195-.13.389-.26.595-.379.13-.065.249-.13.379-.184-.443.2,0,.022.086-.011.227-.076.465-.119.7-.173-.487.1-.022.011.087,0,.151-.011.3-.011.454-.011s.3.022.443.033c-.519-.043.108.033.216.065s.184.054.281.076.184.065.27.1c-.227-.108-.249-.108-.054-.022.26.13.487.271.735.423.389.238-.27-.271.065.043.1.1.206.184.314.282a3.883,3.883,0,0,1,.281.314c.13.163.119.141-.032-.054l.162.228a4.963,4.963,0,0,1,.4.748c-.195-.444-.022,0,.011.087a3.033,3.033,0,0,1,.108.423c.022.1.076.574.032.076,0,.173.011.368.011.574a1.893,1.893,0,1,0,3.785,0,7.19,7.19,0,0,0-13.529-3.413,8.736,8.736,0,0,0,.789,8.7,8.018,8.018,0,0,0,3.18,2.98,5.469,5.469,0,0,0,4.791-.022,8.142,8.142,0,0,0,3.385-3.4,10.206,10.206,0,0,0,1.384-4.854,1.911,1.911,0,0,0-1.893-1.9A1.942,1.942,0,0,0,1017.216,191.579Z" transform="translate(-1006.644 -184.382)"/></g><g transform="translate(76.754 27.27)"><path class="a" d="M978.272,345.045v6.415l1.893-1.9H958.914l1.893,1.9v-6.415a2.848,2.848,0,0,1,.011-.3c0-.065.054-.477.011-.2-.043.26.054-.249.076-.325a5.424,5.424,0,0,1,.173-.553c.032-.108.162-.282-.022.054l.13-.26a3.634,3.634,0,0,1,.292-.488l.162-.228c-.043.054-.26.293-.032.054.119-.119.227-.238.346-.358s.4-.336.108-.119a5.679,5.679,0,0,1,.53-.358c.119-.076.671-.314.26-.152.205-.076.411-.152.616-.206.151-.043.768-.119.292-.087.205-.011.4-.033.606-.033h1.276c-.443-.184-.887-.368-1.341-.553l3.926,4.909a1.89,1.89,0,0,0,2.671,0l3.893-4.909c-.443.184-.887.368-1.341.553h1.265c.205,0,.4.022.606.033-.141-.011-.292-.054-.065,0,.119.022.238.054.357.087a5.88,5.88,0,0,1,.616.206c-.411-.152.13.076.26.152.162.1.314.206.476.314.184.119-.238-.228,0,.011.065.065.141.13.206.2.086.087.162.173.249.26.032.033.249.271.076.076s.032.043.065.1c.065.1.13.2.195.3.054.087.1.163.141.249.022.054.205.412.087.163-.108-.228.022.065.032.108a2.138,2.138,0,0,1,.087.282c.065.217.1.423.151.639-.054-.249-.022-.217-.011.011a1.948,1.948,0,0,1,.032.368,1.893,1.893,0,1,0,3.785,0,7.446,7.446,0,0,0-7.408-7.347,8.178,8.178,0,0,0-1.709.065,2,2,0,0,0-1.146.878l-2.012,2.536c-.53.661-1.049,1.333-1.579,1.994h2.671c-.822-1.029-1.644-2.048-2.466-3.077l-1.3-1.625a1.9,1.9,0,0,0-.779-.607,4.089,4.089,0,0,0-1.622-.163,7.519,7.519,0,0,0-6.824,3.847,10.719,10.719,0,0,0-.887,5.3v4.627a1.918,1.918,0,0,0,1.893,1.9h21.251a1.918,1.918,0,0,0,1.893-1.9v-6.415a1.882,1.882,0,1,0-3.764-.011Z" transform="translate(-957 -337.687)"/></g><g transform="translate(77.228 45.941)"><path class="a" d="M963.281,513.792h20.8a1.9,1.9,0,0,0,0-3.792h-20.8a1.9,1.9,0,0,0,0,3.792Z" transform="translate(-961.387 -510)"/></g><g transform="translate(77.229 45.94)"><g transform="translate(0 0)"><path class="a" d="M965.185,529.33V511.884a1.893,1.893,0,1,0-3.785,0V529.33a1.893,1.893,0,1,0,3.785,0Z" transform="translate(-961.4 -509.987)"/></g></g><g transform="translate(5.333 10.637)"><path class="a" d="M296.6,191.4a10,10,0,0,0,3.98,7.78,5.493,5.493,0,0,0,4.4.921,6.562,6.562,0,0,0,3.547-2.33c1.882-2.286,3.082-5.613,2.12-8.549A7.19,7.19,0,0,0,296.6,191.4a1.893,1.893,0,1,0,3.785,0c0-.152.011-.3.022-.455.022-.488-.108.379.011-.076.065-.238.13-.466.184-.693.119-.455-.184.336.022-.076.054-.108.108-.217.162-.314a2.827,2.827,0,0,1,.184-.3l.162-.228c-.151.2-.162.217-.032.054.162-.173.314-.347.487-.5.076-.065.443-.325.054-.054l.292-.2a5.281,5.281,0,0,1,.692-.368c-.443.2,0,.022.087-.011a3.013,3.013,0,0,1,.422-.108c.1-.022.573-.076.076-.033l.368-.033a5.165,5.165,0,0,1,.822.033c-.508-.043.216.065.357.1s.27.087.411.13c-.454-.141.022.011.13.076a6.056,6.056,0,0,1,.66.412c-.4-.271.162.152.26.249a3.889,3.889,0,0,1,.281.314c.314.336-.195-.336.043.065.151.249.292.488.422.737.216.412-.1-.379.022.076.022.1.065.184.087.271.043.141.065.282.1.423.119.466,0-.4.011.076.011.238.022.466.011.7a1.144,1.144,0,0,1-.032.39c.032-.26.043-.314.022-.173-.011.065-.022.141-.032.206a10.4,10.4,0,0,1-.433,1.506c-.173.466.184-.358-.043.087l-.13.26a7.318,7.318,0,0,1-.519.889c-.054.076-.108.163-.162.238-.27.4.26-.282-.054.076-.162.173-.314.358-.476.52-.1.1-.205.184-.3.282-.335.314.335-.206-.043.033-.13.076-.552.433-.681.39a1.8,1.8,0,0,1,.216-.087c-.076.033-.162.054-.238.087l-.238.065c-.454.108,0-.022.011.011,0,.011-.357.011-.379.011-.368.022.119-.022.13.033,0,0-.346-.076-.368-.076-.043-.011-.346-.076-.357-.119q.389.163.1.033c-.043-.022-.076-.043-.119-.065a3.469,3.469,0,0,1-.335-.206,1.546,1.546,0,0,1-.216-.152c.205.163.227.173.065.043-.205-.2-.411-.379-.595-.585-.1-.108-.184-.217-.281-.325.206.249.054.076-.043-.076a8.675,8.675,0,0,1-.465-.748c-.076-.13-.141-.26-.205-.39-.043-.087-.087-.173-.13-.271.1.228.1.249.022.043-.1-.271-.195-.542-.281-.824s-.13-.542-.184-.824c-.1-.455.022.423,0-.033-.011-.173-.022-.347-.022-.52a1.893,1.893,0,1,0-3.785,0Z" transform="translate(-296.599 -184.179)"/></g><g transform="translate(0.001 27.269)"><path class="a" d="M247.3,345.034v6.415a1.918,1.918,0,0,0,1.893,1.9h21.251a1.918,1.918,0,0,0,1.893-1.9v-3.955a14.436,14.436,0,0,0-.379-4.779A7.467,7.467,0,0,0,265,337.687c-.908-.011-1.957-.13-2.639.6-.379.39-.692.867-1.027,1.289l-2.866,3.587h2.671l-3.4-4.28c-.162-.206-.314-.423-.487-.618a2.706,2.706,0,0,0-2.2-.574,7.688,7.688,0,0,0-4.758,1.43,7.461,7.461,0,0,0-3.006,5.916,1.893,1.893,0,1,0,3.785,0,2.848,2.848,0,0,1,.011-.3c0-.022.054-.488.011-.2-.043.26.022-.065.032-.108.022-.119.054-.238.087-.358.054-.184.119-.368.184-.553-.162.433.087-.141.151-.26a5.692,5.692,0,0,1,.357-.531c-.249.347.1-.087.216-.206s.552-.477.205-.217a5.676,5.676,0,0,1,.53-.358c.087-.043.162-.087.249-.141.043-.022.324-.163.1-.054-.249.119.119-.043.173-.065a2.138,2.138,0,0,1,.281-.087c.119-.033.238-.065.357-.087.043-.011.379-.065.108-.033s.065,0,.119-.011c.13-.011.249-.011.379-.011h1.276c-.443-.184-.887-.368-1.341-.553l3.893,4.909a1.881,1.881,0,0,0,2.671,0l3.926-4.909c-.443.184-.887.368-1.341.553h1.492c.173.011.552.087.162,0a8.264,8.264,0,0,1,1.125.314c-.433-.163.076.054.195.119.162.1.324.2.476.3.043.033.205.184.032.022-.195-.173.032.033.076.076.151.152.3.3.443.455.032.033.195.206.032.033s.022.033.065.1c.087.141.184.282.26.423s.27.585.119.2c.076.206.151.412.205.618.043.163.065.336.108.5-.108-.466,0,.108,0,.238v6.556l1.893-1.9H249.149l1.893,1.9V344.99a1.911,1.911,0,0,0-1.893-1.9A1.98,1.98,0,0,0,247.3,345.034Z" transform="translate(-247.299 -337.674)"/></g><g transform="translate(0 45.941)"><path class="a" d="M269.977,510h-20.8a1.9,1.9,0,0,0,0,3.792h20.8a1.9,1.9,0,0,0,0-3.792Z" transform="translate(-247.287 -510)"/></g><g transform="translate(20.798 45.94)"><g transform="translate(0 0)"><path class="a" d="M443.385,529.33V511.884a1.893,1.893,0,1,0-3.785,0V529.33a1.893,1.893,0,1,0,3.785,0Z" transform="translate(-439.6 -509.987)"/></g></g><g transform="translate(19.721 45.917)"><path class="a" d="M505.182,513.594h53.454c2.463,0,4.941.054,7.4,0h.108c1.416,0,2.755-.867,2.693-1.9s-1.185-1.9-2.693-1.9H512.693c-2.463,0-4.941-.054-7.4,0h-.108c-1.416,0-2.755.867-2.694,1.9s1.185,1.9,2.694,1.9Z" transform="translate(-502.487 -509.778)"/></g><g transform="translate(66.642 45.94)"><g transform="translate(0 0)"><path class="a" d="M863.5,511.884V529.33a1.893,1.893,0,1,0,3.785,0V511.884a1.893,1.893,0,1,0-3.785,0Z" transform="translate(-863.5 -509.987)"/></g></g><g transform="translate(31.386 45.94)"><g transform="translate(0 0)"><path class="a" d="M541.285,529.33V511.884a1.893,1.893,0,1,0-3.785,0V529.33a1.893,1.893,0,1,0,3.785,0Z" transform="translate(-537.5 -509.987)"/></g></g><g transform="translate(37.323 0)"><path class="a" d="M596.174,99.6c0-.455.032-.9.076-1.354-.043.433.011-.076.043-.228.043-.238.1-.477.151-.715a11.411,11.411,0,0,1,.357-1.181c.032-.087.065-.184.1-.271.022-.065.151-.347.043-.108-.13.282.076-.152.076-.163l.162-.325a11.44,11.44,0,0,1,.606-1.051,4.5,4.5,0,0,1,.324-.466c.011-.011.292-.39.108-.152-.173.217.087-.1.119-.141a11.747,11.747,0,0,1,.865-.932c.141-.13.27-.26.411-.379.1-.087.66-.52.27-.238a14.516,14.516,0,0,1,2.2-1.311c.086-.043.335-.141-.054.022.086-.033.173-.076.27-.108.184-.065.357-.13.541-.2a9.873,9.873,0,0,1,1.265-.336c.216-.043.433-.076.649-.119.3-.054-.476.033.011,0a2.655,2.655,0,0,1,.3-.022,11.438,11.438,0,0,1,1.363-.022c.195.011.4.022.595.043.022,0,.508.043.195.011-.27-.022.043.011.119.022a11.593,11.593,0,0,1,1.352.3c.368.108.735.238,1.092.368.324.119,0,0-.054-.022.108.054.216.1.324.152.216.1.422.217.627.325.346.2.692.412,1.017.639.13.1.5.39.184.13.184.152.368.3.541.455.3.271.584.553.854.845.141.163.281.325.411.488.065.065.206.282-.032-.054.087.119.173.228.249.347a11.085,11.085,0,0,1,.606.964c.108.184.206.379.3.563.054.108.1.217.151.325.162.325-.076-.217.011.011a13.483,13.483,0,0,1,.692,2.449c.011.1.032.2.043.293-.065-.455-.022-.1-.011.011.022.228.032.444.043.672a11.517,11.517,0,0,1-.022,1.365c-.011.173-.076.661-.011.238-.032.217-.065.433-.108.65a12.077,12.077,0,0,1-.324,1.268c-.065.206-.141.412-.216.618-.032.087-.065.173-.108.271.022-.054.173-.368.022-.054-.184.39-.379.769-.595,1.138-.119.206-.249.4-.378.6-.087.119-.5.661-.206.3-.3.368-.606.715-.941,1.051-.162.163-.335.325-.519.477-.1.087-.66.52-.27.238a12.329,12.329,0,0,1-1.179.78c-.205.119-.411.228-.627.336-.13.065-.779.347-.324.163-.443.173-.9.336-1.363.466a13.793,13.793,0,0,1-1.363.282c-.3.054.476-.033-.011,0l-.368.033c-.281.022-.552.033-.833.033a1.9,1.9,0,0,0,0,3.792,13.586,13.586,0,0,0,4.91-26.233,13.543,13.543,0,0,0-11.929,1A13.77,13.77,0,0,0,592.4,99.6a1.887,1.887,0,1,0,3.774,0Z" transform="translate(-592.399 -86.014)"/></g><g transform="translate(49.014 23.424)"><path class="a" d="M700.5,304.084v8.159a1.893,1.893,0,1,0,3.785,0v-8.159a1.911,1.911,0,0,0-1.893-1.9,1.932,1.932,0,0,0-1.893,1.9Z" transform="translate(-700.5 -302.187)"/></g><g transform="translate(49.014 37.705)"><path class="a" d="M700.5,435.884v1.441a1.893,1.893,0,1,0,3.785,0v-1.441a1.911,1.911,0,0,0-1.893-1.9,1.932,1.932,0,0,0-1.893,1.9Z" transform="translate(-700.5 -433.987)"/></g></g></svg>