<svg xmlns="http://www.w3.org/2000/svg" width="117.737" height="95.331" viewBox="0 0 117.737 95.331"><defs><style>.a{fill:#843d95;}</style></defs><path class="a" d="M22.306,95.331a1.836,1.836,0,1,1,0-3.671h91.752V84.315H3.679v7.344h9.428a1.836,1.836,0,1,1,0,3.671H1.839A1.838,1.838,0,0,1,0,93.495V82.479a1.838,1.838,0,0,1,1.839-1.837H2a12.785,12.785,0,0,1,3.587-8.877,9.287,9.287,0,0,1-.229-2.029,9.509,9.509,0,0,1,13.337-8.7,12.95,12.95,0,0,1,1.647-2.111,9.3,9.3,0,0,1-.23-2.029,9.521,9.521,0,0,1,19.031,0,9.3,9.3,0,0,1-.229,2.029,13,13,0,0,1,1.647,2.111,9.481,9.481,0,0,1,7.561,0,13,13,0,0,1,1.647-2.111,9.356,9.356,0,0,1-.23-2.029,9.521,9.521,0,0,1,19.032,0,9.356,9.356,0,0,1-.23,2.029,13,13,0,0,1,1.647,2.111,9.45,9.45,0,0,1,6.825-.275,12.942,12.942,0,0,1,1.463-1.836,9.271,9.271,0,0,1-.23-2.038,9.521,9.521,0,0,1,19.031,0,9.232,9.232,0,0,1-.23,2.028,12.973,12.973,0,0,1,1.8,2.374h.191A9.511,9.511,0,0,1,112.7,69.737a9.3,9.3,0,0,1-.229,2.03,12.785,12.785,0,0,1,3.587,8.876,1.838,1.838,0,0,1,1.683,1.837V93.495a1.838,1.838,0,0,1-1.839,1.836ZM93.978,80.643h18.4a9.2,9.2,0,0,0-18.4,0Zm-14-18.066a9.466,9.466,0,0,1,3.283,7.16,9.3,9.3,0,0,1-.229,2.03,12.781,12.781,0,0,1,3.587,8.876H90.3a12.788,12.788,0,0,1,3.6-8.877,9.287,9.287,0,0,1-.229-2.029A9.433,9.433,0,0,1,95.8,63.751a9.2,9.2,0,0,0-7.574-5.107q-.344-.026-.686-.026A9.2,9.2,0,0,0,79.979,62.577ZM64.543,80.643h18.4a9.2,9.2,0,0,0-18.4,0ZM51.123,63.118a9.454,9.454,0,0,1,2.7,6.618,9.3,9.3,0,0,1-.229,2.03,12.785,12.785,0,0,1,3.587,8.876h3.679a12.784,12.784,0,0,1,3.6-8.877,9.288,9.288,0,0,1-.23-2.029,9.457,9.457,0,0,1,2.7-6.618,9.207,9.207,0,0,0-15.812,0ZM35.11,80.643h18.4a9.2,9.2,0,0,0-18.4,0ZM21.689,63.118a9.457,9.457,0,0,1,2.7,6.618,9.3,9.3,0,0,1-.229,2.03,12.781,12.781,0,0,1,3.587,8.876H31.43a12.788,12.788,0,0,1,3.6-8.877,9.287,9.287,0,0,1-.229-2.029,9.449,9.449,0,0,1,2.7-6.618,9.207,9.207,0,0,0-15.812,0ZM5.675,80.643h18.4a9.2,9.2,0,0,0-18.4,0ZM66.227,45.879,68.784,31.53H49.256L51.8,45.869c-1.228.808-1.573,6.94-3.21,2.975s-3.339-18.837-3.339-18.837a1.835,1.835,0,0,1,1.776-2.148H70.937a1.836,1.836,0,0,1,1.839,2.157s-1.7,14.871-3.339,18.837c-.394.954-.713,1.324-.988,1.324C67.583,50.176,67.159,46.491,66.227,45.879Zm-.764-21.656V20.55H52.586v3.672H48.906V20.55a3.677,3.677,0,0,1,3.717-3.671h12.84a3.676,3.676,0,0,1,3.679,3.671v3.672ZM26,23.617l-10.7-9.966a1.712,1.712,0,0,1-.084-2.424L25.194.545A1.72,1.72,0,0,1,27.625.461l10.7,9.966a1.713,1.713,0,0,1,.084,2.424L28.427,23.533a1.721,1.721,0,0,1-1.2.545H27.17A1.721,1.721,0,0,1,26,23.617Zm-7.1-11.3,8.19,7.624,7.639-8.173-8.19-7.624Zm62.539,6.256a1.709,1.709,0,0,1-.1-1.713L89.194,1.147A1.718,1.718,0,0,1,90.627.2a1.678,1.678,0,0,1,1.539.767l9.7,14.65a1.716,1.716,0,0,1-1.33,2.659L82.974,19.336c-.036,0-.071,0-.1,0A1.719,1.719,0,0,1,81.435,18.569Zm4.3-2.838,11.618-.7L90.939,5.339ZM51.667,7.661a7.358,7.358,0,1,1,7.358,7.344A7.35,7.35,0,0,1,51.667,7.661Z" transform="translate(0 0)"/></svg>