<svg xmlns="http://www.w3.org/2000/svg" width="91.663" height="95.6" viewBox="0 0 91.663 95.6"><defs><style>.a{fill:#843d95;}</style></defs><g transform="translate(-2.777 -1.501)"><g transform="translate(2.777 1.501)"><path class="a" d="M9.818,13.931l36.527,16L43.12,35.912A28.167,28.167,0,0,0,40.6,57.144l2.177,7.526a1.54,1.54,0,0,1-.116,1.138l-11,21.181A6.917,6.917,0,0,0,37.821,97.1a6.887,6.887,0,0,0,6.156-3.748L54.51,72.989A13.727,13.727,0,0,0,56,65.174L55.65,61.93l10.372,9.021,9.147,21.762a7.182,7.182,0,0,0,2.64,3.171,7.067,7.067,0,0,0,3.98,1.217,7.192,7.192,0,0,0,6.541-10.176L79.784,68.239a16.816,16.816,0,0,0-3.257-4.76L65.034,51.671l5.95-13.723c.027,0,.051.014.079.014a1.608,1.608,0,0,0,.224-.016l2.792-.407A8.335,8.335,0,0,0,76.2,21.645l-2.995-1.3a11.617,11.617,0,0,0,.54-3.5,11.78,11.78,0,0,0-22.017-5.837L45.165,8.157a6.422,6.422,0,0,0-8.464,3.3L15.006,2.036A6.488,6.488,0,0,0,9.818,13.931ZM61.952,8.139a8.715,8.715,0,0,1,8.705,8.706,8.6,8.6,0,0,1-.307,2.26L54.573,12.246A8.629,8.629,0,0,1,61.952,8.139ZM40.868,11.173a3.394,3.394,0,0,1,3.072-.186l7.937,3.45.007,0h.006L74.966,24.474a5.251,5.251,0,0,1-1.333,10.012l-1.226.179.763-1.758a1.488,1.488,0,0,0,.072-.342,1.555,1.555,0,0,0-.869-1.684L58.1,24.63l-.06-.031h0c-.032-.016-.065-.032-.082-.039L41.209,17.224a3.379,3.379,0,0,1-2.03-3.11c0-.142.014-.284.021-.385A3.356,3.356,0,0,1,40.868,11.173ZM10.553,5.149a3.363,3.363,0,0,1,3.227-.284l22.349,9.709a6.44,6.44,0,0,0,3.85,5.477l16.653,7.293c.026.013.113.057.14.069h0a7.362,7.362,0,0,0,.946.414l12.008,5.26-7.935,18.3a1.544,1.544,0,0,0,.31,1.689l12.214,12.55a13.754,13.754,0,0,1,2.662,3.891L85.524,88.2a4.109,4.109,0,0,1-3.736,5.813,4.006,4.006,0,0,1-2.263-.695,4.117,4.117,0,0,1-1.516-1.812L68.86,69.747a2.954,2.954,0,0,0-.818-1.108L54.712,57.026a1.542,1.542,0,0,0-2.546,1.327l.765,7.142a10.633,10.633,0,0,1-1.155,6.068L41.234,91.941a3.817,3.817,0,0,1-3.414,2.076A3.834,3.834,0,0,1,34.4,88.4l11-21.169a4.616,4.616,0,0,0,.345-3.411l-2.218-7.665a25.016,25.016,0,0,1,2.306-18.777l4.021-7.451a1.6,1.6,0,0,0-.738-2.145L11.053,11.1A3.392,3.392,0,0,1,9.019,7.993,3.352,3.352,0,0,1,10.553,5.149Z" transform="translate(-1.066 -1.501)"/><path class="a" d="M57.793,22.013a1.542,1.542,0,0,0,3.084,0c0-.781.327-1.126,1.065-1.831a5.252,5.252,0,0,0,2.019-4.061c0-4.522-5.424-4.471-2.019-7.719a5.244,5.244,0,0,0,2.019-4.057,1.542,1.542,0,1,0-3.084,0c0,1.833-3.084,2.345-3.084,5.883a5.252,5.252,0,0,0,2.019,4.061C63.148,17.478,57.793,17.561,57.793,22.013Z" transform="translate(27.04 -0.795)"/><path class="a" d="M21.416,37.484c.738.705,1.065,1.05,1.065,1.831a1.542,1.542,0,1,0,3.084,0c0-4.467-5.365-4.526-2.019-7.718a5.244,5.244,0,0,0,2.019-4.057,1.542,1.542,0,0,0-3.084,0c0,.778-.327,1.122-1.065,1.826C18.687,31.969,18.685,34.876,21.416,37.484Z" transform="translate(6.215 11.776)"/><path class="a" d="M6.643,28.859l4.786,2.617c2.459,4.033,2.432,5.588,3.971,5.588a1.541,1.541,0,0,0,1.352-.8l2.619-4.786,4.784-2.617a1.542,1.542,0,0,0,0-2.706l-4.784-2.617-2.619-4.786a1.541,1.541,0,0,0-2.7,0l-2.619,4.786c-4.033,2.458-5.588,2.431-5.588,3.97A1.54,1.54,0,0,0,6.643,28.859Zm7.273-3.447L15.4,22.7l1.482,2.709c.367.67.881.685,3.32,2.094-2.456,1.418-2.954,1.426-3.32,2.094L15.4,32.309c-1.4-2.427-1.429-2.957-2.1-3.322L10.6,27.506C13.063,26.082,13.552,26.079,13.917,25.412Z" transform="translate(-1.117 7.413)"/><path class="a" d="M55.291,28.1l-2.146,3.922-3.921,2.145a1.542,1.542,0,0,0,0,2.706l3.923,2.144,2.144,3.922a1.541,1.541,0,0,0,2.7,0l2.146-3.922,3.921-2.144a1.542,1.542,0,0,0,0-2.706l-3.921-2.145L58,28.1A1.6,1.6,0,0,0,55.291,28.1Zm4.819,7.42-1.843,1.008a1.538,1.538,0,0,0-.613.613l-1.01,1.845-1.009-1.845a1.544,1.544,0,0,0-.613-.613l-1.845-1.008,1.845-1.009a1.544,1.544,0,0,0,.613-.613l1.009-1.845,1.01,1.845a1.543,1.543,0,0,0,.613.613Z" transform="translate(21.96 12.516)"/><path class="a" d="M60.906,24.347a1.542,1.542,0,1,0,0,3.084H62.23a1.542,1.542,0,0,0,0-3.084Z" transform="translate(27.891 10.881)"/><path class="a" d="M51.841,5.886h1.325a1.542,1.542,0,0,0,0-3.084H51.841a1.542,1.542,0,1,0,0,3.084Z" transform="translate(22.978 -0.795)"/><path class="a" d="M23.653,5.014h1.324a1.542,1.542,0,1,0,0-3.084H23.653a1.542,1.542,0,1,0,0,3.084Z" transform="translate(7.701 -1.268)"/><path class="a" d="M4.319,14.431H5.644a1.542,1.542,0,1,0,0-3.084H4.319a1.542,1.542,0,1,0,0,3.084Z" transform="translate(-2.777 3.836)"/><path class="a" d="M22.069,21.544h1.325a1.542,1.542,0,1,0,0-3.084H22.069a1.542,1.542,0,0,0,0,3.084Z" transform="translate(6.843 7.691)"/></g></g></svg>